{
    "asset" : {
        "generator" : "Khronos glTF Blender I/O v1.3.48",
        "version" : "2.0"
    },
    "scene" : 0,
    "scenes" : [
        {
            "name" : "Scene",
            "nodes" : [
                0,
                1,
                2
            ]
        }
    ],
    "nodes" : [
        {
            "mesh" : 0,
            "name" : "Mesh_0.005",
            "rotation" : [
                -0.7071068286895752,
                0,
                0,
                0.7071067094802856
            ],
            "scale" : [
                0.0012655883328989148,
                0.0012655886821448803,
                0.0012655886821448803
            ]
        },
        {
            "mesh" : 1,
            "name" : "shirt.001",
            "scale" : [
                0.010054401122033596,
                0.010054401122033596,
                0.010054401122033596
            ],
            "translation" : [
                0,
                0.46390998363494873,
                -0.10459212213754654
            ]
        },
        {
            "mesh" : 2,
            "name" : "shirt.002",
            "rotation" : [
                -0.0054068658500909805,
                -0.00033202554914169014,
                0.03731720522046089,
                0.99928879737854
            ],
            "scale" : [
                0.010054401122033596,
                0.010054401122033596,
                0.010054401122033596
            ],
            "translation" : [
                0.2315557301044464,
                -0.3256411552429199,
                -0.011239498853683472
            ]
        }
    ],
    "materials" : [
        {
            "doubleSided" : true,
            "emissiveFactor" : [
                0,
                0,
                0
            ],
            "name" : "main",
            "pbrMetallicRoughness" : {
                "metallicFactor" : 0,
                "roughnessFactor" : 0.5
            }
        },
        {
            "doubleSided" : true,
            "emissiveFactor" : [
                0,
                0,
                0
            ],
            "name" : "inner",
            "pbrMetallicRoughness" : {
                "baseColorFactor" : [
                    0.800000011920929,
                    0.800000011920929,
                    0.800000011920929,
                    1
                ],
                "metallicFactor" : 0,
                "roughnessFactor" : 0.5
            }
        },
        {
            "doubleSided" : true,
            "emissiveFactor" : [
                0,
                0,
                0
            ],
            "name" : "tag",
            "pbrMetallicRoughness" : {
                "baseColorTexture" : {
                    "index" : 0,
                    "texCoord" : 0
                },
                "metallicFactor" : 0,
                "roughnessFactor" : 0.5
            }
        },
        {
            "doubleSided" : true,
            "emissiveFactor" : [
                0,
                0,
                0
            ],
            "name" : "tag2",
            "pbrMetallicRoughness" : {
                "baseColorTexture" : {
                    "index" : 1,
                    "texCoord" : 0
                },
                "metallicFactor" : 0,
                "roughnessFactor" : 0.5
            }
        }
    ],
    "meshes" : [
        {
            "name" : "Mesh_0.005",
            "primitives" : [
                {
                    "attributes" : {
                        "POSITION" : 0,
                        "NORMAL" : 1,
                        "TEXCOORD_0" : 2
                    },
                    "indices" : 3,
                    "material" : 0
                },
                {
                    "attributes" : {
                        "POSITION" : 4,
                        "NORMAL" : 5,
                        "TEXCOORD_0" : 6
                    },
                    "indices" : 7,
                    "material" : 1
                }
            ]
        },
        {
            "name" : "000-0-0.001",
            "primitives" : [
                {
                    "attributes" : {
                        "POSITION" : 8,
                        "NORMAL" : 9,
                        "TEXCOORD_0" : 10
                    },
                    "indices" : 11,
                    "material" : 2
                }
            ]
        },
        {
            "name" : "000-0-0.002",
            "primitives" : [
                {
                    "attributes" : {
                        "POSITION" : 12,
                        "NORMAL" : 13,
                        "TEXCOORD_0" : 14
                    },
                    "indices" : 15,
                    "material" : 3
                }
            ]
        }
    ],
    "textures" : [
        {
            "source" : 0
        },
        {
            "source" : 1
        }
    ],
    "images" : [
        {
            "bufferView" : 12,
            "mimeType" : "image/png",
            "name" : "Asset_2"
        },
        {
            "bufferView" : 17,
            "mimeType" : "image/png",
            "name" : "Asset_1"
        }
    ],
    "accessors" : [
        {
            "bufferView" : 0,
            "componentType" : 5126,
            "count" : 7979,
            "max" : [
                204.3663787841797,
                139.37901306152344,
                400.654541015625
            ],
            "min" : [
                -204.69215393066406,
                -168.04034423828125,
                -352.6446533203125
            ],
            "type" : "VEC3"
        },
        {
            "bufferView" : 1,
            "componentType" : 5126,
            "count" : 7979,
            "type" : "VEC3"
        },
        {
            "bufferView" : 2,
            "componentType" : 5126,
            "count" : 7979,
            "type" : "VEC2"
        },
        {
            "bufferView" : 3,
            "componentType" : 5123,
            "count" : 46284,
            "type" : "SCALAR"
        },
        {
            "bufferView" : 4,
            "componentType" : 5126,
            "count" : 3713,
            "max" : [
                195.43878173828125,
                137.47938537597656,
                374.268798828125
            ],
            "min" : [
                -194.15086364746094,
                -166.14178466796875,
                -352.4588623046875
            ],
            "type" : "VEC3"
        },
        {
            "bufferView" : 5,
            "componentType" : 5126,
            "count" : 3713,
            "type" : "VEC3"
        },
        {
            "bufferView" : 6,
            "componentType" : 5126,
            "count" : 3713,
            "type" : "VEC2"
        },
        {
            "bufferView" : 7,
            "componentType" : 5123,
            "count" : 21234,
            "type" : "SCALAR"
        },
        {
            "bufferView" : 8,
            "componentType" : 5126,
            "count" : 65,
            "max" : [
                2.545044183731079,
                1.1845741271972656,
                0.1277017593383789
            ],
            "min" : [
                -2.545412063598633,
                -3.514742374420166,
                -0.10239219665527344
            ],
            "type" : "VEC3"
        },
        {
            "bufferView" : 9,
            "componentType" : 5126,
            "count" : 65,
            "type" : "VEC3"
        },
        {
            "bufferView" : 10,
            "componentType" : 5126,
            "count" : 65,
            "type" : "VEC2"
        },
        {
            "bufferView" : 11,
            "componentType" : 5123,
            "count" : 240,
            "type" : "SCALAR"
        },
        {
            "bufferView" : 13,
            "componentType" : 5126,
            "count" : 36,
            "max" : [
                0.489501953125,
                1.2738075256347656,
                0.6447123289108276
            ],
            "min" : [
                -0.4894981384277344,
                -1.2738094329833984,
                -0.6447120904922485
            ],
            "type" : "VEC3"
        },
        {
            "bufferView" : 14,
            "componentType" : 5126,
            "count" : 36,
            "type" : "VEC3"
        },
        {
            "bufferView" : 15,
            "componentType" : 5126,
            "count" : 36,
            "type" : "VEC2"
        },
        {
            "bufferView" : 16,
            "componentType" : 5123,
            "count" : 36,
            "type" : "SCALAR"
        }
    ],
    "bufferViews" : [
        {
            "buffer" : 0,
            "byteLength" : 95748,
            "byteOffset" : 0
        },
        {
            "buffer" : 0,
            "byteLength" : 95748,
            "byteOffset" : 95748
        },
        {
            "buffer" : 0,
            "byteLength" : 63832,
            "byteOffset" : 191496
        },
        {
            "buffer" : 0,
            "byteLength" : 92568,
            "byteOffset" : 255328
        },
        {
            "buffer" : 0,
            "byteLength" : 44556,
            "byteOffset" : 347896
        },
        {
            "buffer" : 0,
            "byteLength" : 44556,
            "byteOffset" : 392452
        },
        {
            "buffer" : 0,
            "byteLength" : 29704,
            "byteOffset" : 437008
        },
        {
            "buffer" : 0,
            "byteLength" : 42468,
            "byteOffset" : 466712
        },
        {
            "buffer" : 0,
            "byteLength" : 780,
            "byteOffset" : 509180
        },
        {
            "buffer" : 0,
            "byteLength" : 780,
            "byteOffset" : 509960
        },
        {
            "buffer" : 0,
            "byteLength" : 520,
            "byteOffset" : 510740
        },
        {
            "buffer" : 0,
            "byteLength" : 480,
            "byteOffset" : 511260
        },
        {
            "buffer" : 0,
            "byteLength" : 8256,
            "byteOffset" : 511740
        },
        {
            "buffer" : 0,
            "byteLength" : 432,
            "byteOffset" : 519996
        },
        {
            "buffer" : 0,
            "byteLength" : 432,
            "byteOffset" : 520428
        },
        {
            "buffer" : 0,
            "byteLength" : 288,
            "byteOffset" : 520860
        },
        {
            "buffer" : 0,
            "byteLength" : 72,
            "byteOffset" : 521148
        },
        {
            "buffer" : 0,
            "byteLength" : 11037,
            "byteOffset" : 521220
        }
    ],
    "buffers" : [
        {
            "byteLength" : 532260,
            "uri" : "data:application/octet-stream;base64,"
        }
    ]
}
