# Blender 5.1.1
# www.blender.org
mtllib head_occluder.mtl
o head_occluder
v 0.000000 -3.406404 5.979507
v 0.000000 -1.126864 7.475604
v 0.000000 -2.089024 6.058267
v -0.463928 0.955357 6.633583
v 0.000000 -0.463169 7.586580
v 0.000000 0.365670 7.242870
v 0.000000 2.473255 5.788627
v -4.253081 2.577646 3.279702
v 0.000000 4.019042 5.284763
v 0.000000 4.885980 5.385258
v 0.000000 8.261778 4.481534
v 0.000000 -3.706810 5.864924
v 0.000000 -3.918301 5.569430
v 0.000000 -3.994436 5.219482
v 0.000000 -4.542399 5.404755
v 0.000000 -4.745576 5.529458
v 0.000000 -5.019567 5.601449
v 0.000000 -5.365122 5.535441
v 0.000000 -6.149623 5.071373
v 0.000000 -1.501094 7.112196
v -0.416106 -1.466449 6.447657
v -7.087960 5.434801 0.099620
v -2.628639 2.035898 3.848121
v -3.198363 1.985815 3.796952
v -3.775151 2.039402 3.646194
v -4.465819 2.422950 3.155168
v -2.164289 2.189867 3.851822
v -3.208229 3.223926 4.115821
v -2.673803 3.205337 4.092203
v -3.745193 3.165286 3.972409
v -4.161018 3.059069 3.719554
v -5.062006 1.934418 2.776093
v -2.266659 -7.425767 4.389812
v -4.445859 2.663991 3.173422
v -7.214530 2.263009 0.073150
v -5.799793 2.349546 2.204059
v -2.844939 -0.720868 4.433130
v -0.711452 -3.329355 5.877045
v -0.606033 -3.924562 5.444923
v -1.431615 -3.500952 5.496190
v -1.914910 -3.803145 5.028931
v -1.131043 -3.973937 5.189649
v -1.563548 -4.082763 4.842264
v -2.650112 -5.003649 4.188484
v -0.427049 -1.094133 7.360529
v -0.496396 -0.475658 7.440358
v -5.253307 3.881582 3.363159
v -1.718698 0.974609 4.558359
v -1.608635 -0.942516 5.814193
v -1.651267 -0.610868 5.581319
v -4.765501 -0.701554 3.534632
v -0.478306 0.295767 7.101013
v -3.734964 4.508231 4.550454
v -4.588603 4.302037 4.048483
v -6.279331 6.615427 1.425850
v -1.220941 4.142166 5.106035
v -2.193489 3.100317 4.000575
v -3.102642 -4.352983 4.095905
v -6.719682 -4.788645 -1.745401
v -1.193824 -1.306795 5.737747
v -0.729766 -1.593711 5.833208
v -2.456206 -4.342620 4.283885
v -2.204823 -4.304508 4.162499
v -4.985894 4.802462 3.751976
v -1.592294 -1.257709 5.456949
v -2.644548 4.524654 4.921558
v -2.760292 5.100972 5.015989
v -3.523964 8.005976 3.729162
v -5.599763 5.715470 2.724258
v -3.063932 6.566144 4.529981
v -5.720968 4.254584 2.830852
v -6.374393 4.785590 1.591691
v -0.672728 -3.688015 5.737804
v -1.262560 -3.787691 5.417779
v -1.732553 -3.952766 5.000579
v -1.043625 -1.464972 5.662455
v -2.321234 -4.329069 4.258156
v -2.056846 -4.477671 4.520884
v -2.153084 -4.276321 4.038094
v -0.946874 -1.035249 6.512274
v -1.469132 -4.036351 4.604908
v -1.024340 -3.989851 4.926693
v -0.533422 -3.993222 5.138203
v -0.769720 -6.095394 4.985884
v -0.699606 -5.291850 5.448305
v -0.669687 -4.949769 5.509613
v -0.630947 -4.695100 5.449371
v -0.583218 -4.517982 5.339869
v -1.537170 -4.423205 4.745471
v -1.615600 -4.475942 4.813632
v -1.729053 -4.618680 4.854464
v -1.838624 -4.828745 4.823738
v -2.368250 -3.106236 4.868096
v -7.542244 -1.049282 -2.431321
v 0.000000 -1.724002 6.601390
v -1.826614 -4.399530 4.399022
v -1.929558 -4.411830 4.497053
v -0.597442 -2.013685 5.866456
v -1.405627 -1.714196 5.241087
v -0.662449 -1.819321 5.863759
v -2.342340 0.572222 4.294303
v -3.327324 0.104863 4.113860
v -1.726175 -0.919165 5.273355
v -5.133204 7.485602 2.660442
v -4.538641 6.319908 3.683424
v -3.986562 5.109488 4.466314
v -2.169681 -5.440433 4.455874
v -1.395634 5.011963 5.316031
v -1.619500 6.599217 4.921105
v -1.891399 8.236377 4.274997
v -4.195832 2.235205 3.375099
v -5.733342 1.411738 2.431726
v -1.859887 2.355757 3.843181
v -4.988612 3.074654 3.083858
v -1.303263 1.416453 4.831091
v -1.305757 -0.672779 6.415959
v -6.465170 0.937119 1.689873
v -5.258659 0.945811 2.974312
v -4.432338 0.722096 3.522615
v -3.300681 0.861641 3.872784
v -2.430178 1.131492 4.039035
v -1.820731 1.467954 4.224124
v -0.563221 2.307693 5.566789
v -6.338145 -0.529279 1.881175
v -5.587698 3.208071 2.687839
v -0.242624 -1.462857 7.071491
v -1.611251 0.339326 4.895421
v -7.743095 2.364999 -2.005167
v -1.391142 1.851048 4.448999
v -1.785794 -0.978284 4.850470
v -4.670959 2.664461 3.084075
v -1.333970 -0.283761 6.097047
v -7.270895 -2.890917 -2.252455
v -1.856432 2.585245 3.757904
v -0.923388 0.073077 6.671944
v -5.000589 -6.135128 1.892524
v -5.085276 -7.178590 0.714712
v -7.159291 -0.811820 -0.072044
v -5.843051 -5.248023 0.924091
v -6.847258 3.662916 0.724695
v -2.412942 -8.258853 4.119214
v -0.179909 -1.689864 6.573301
v -2.103655 -0.163946 4.566119
v -6.407571 2.236021 1.560843
v -3.670075 2.360153 3.635230
v -3.177186 2.294265 3.775704
v -2.196121 -4.598321 4.479786
v -6.234883 -1.944430 1.663542
v -1.292924 -9.295920 4.094063
v -3.210651 -8.533278 2.802002
v -4.068926 -7.993109 1.925120
v 0.000000 6.545391 5.027310
v 0.000000 -9.403378 4.264493
v -2.724032 2.315802 3.777151
v -2.288460 2.398891 3.697603
v -1.998311 2.496547 3.689148
v -6.130040 3.399261 2.038516
v -2.288460 2.886504 3.775031
v -2.724032 2.961810 3.871767
v -3.177186 2.964136 3.876973
v -3.670075 2.927714 3.724325
v -4.018389 2.857357 3.482983
v -7.555811 4.106811 -0.991917
v -4.018389 2.483695 3.440898
v 0.000000 -2.521945 5.932265
v -1.776217 -2.683945 5.213116
v -1.222237 -1.182443 5.952465
v -0.731493 -2.536683 5.815343
v 0.000000 3.271028 5.236014
v -4.135272 -6.996638 2.671970
v -3.311811 -7.660814 3.382963
v -1.313701 -8.639995 4.702456
v -5.940524 -6.223629 -0.631468
v -1.998311 2.743838 3.744030
v -0.901447 1.236992 5.754256
v 0.000000 -8.765243 4.891441
v -2.308977 -8.974196 3.609071
v -6.954154 -2.439843 -0.131163
v -1.098819 -4.458787 5.120728
v -1.181124 -4.579996 5.189565
v -1.255818 -4.787900 5.237051
v -1.325085 -5.106506 5.205010
v -1.546388 -5.819392 4.757894
v -1.953754 -4.183891 4.431714
v -2.117802 -4.137093 4.555097
v -2.285339 -4.051196 4.582438
v -2.850160 -3.665720 4.484994
v -5.278538 -2.238942 2.861224
v -0.946709 1.907628 5.196779
v -1.314173 3.104912 4.231404
v -1.780000 2.860000 3.881555
v -1.845110 -4.098879 4.247264
v -5.436187 -4.030482 2.109852
v -0.766444 3.182132 4.861453
v -1.938616 -6.614409 4.521085
v 0.000000 1.059413 6.774605
v -0.516573 1.583573 6.148363
v 0.000000 1.728369 6.316750
v -1.246815 0.230297 5.681036
v 0.000000 -7.942194 5.181173
v 0.000000 -6.991498 5.153479
v -0.997827 -6.930921 4.979577
v -3.288807 -5.382514 3.795753
v -2.311631 -1.566237 4.590085
v -2.680250 -6.111567 4.096152
v -3.832928 -1.537326 4.137731
v -2.961860 -2.274215 4.440943
v -4.386901 -2.683286 3.643886
v -1.217295 -7.834465 4.969286
v -1.542374 -0.136843 5.201008
v -3.878377 -6.041763 3.311080
v -3.084037 -6.809842 3.814195
v -3.747321 -4.503544 3.726453
v -6.094129 -3.205991 1.473482
v -4.588995 -4.728726 2.983221
v -6.583231 -3.941269 0.070268
v -3.492580 -3.195820 4.130198
v -1.255543 0.802341 5.307551
v -1.126122 -0.933601 6.538785
v -1.443109 -1.142774 5.905127
v -0.923043 -0.529041 7.003423
v -1.755386 3.529117 4.327695
v -2.632589 3.713828 4.364628
v -3.388062 3.721976 4.309028
v -4.075766 3.675413 4.076063
v -4.622910 3.474691 3.646321
v -5.171755 2.535753 2.670867
v -7.297331 0.763172 -0.048769
v -4.706828 1.651000 3.109532
v -4.071712 1.476821 3.476944
v -3.269817 1.470659 3.731945
v -2.527572 1.617311 3.865444
v -1.970894 1.858505 3.961782
v -1.579543 2.097941 4.084996
v -7.664182 0.673132 -2.435867
v -1.397041 -1.340139 5.630378
v -0.884838 0.658740 6.233232
v -0.767097 -0.968034 7.077932
v -0.460213 -1.334105 6.787447
v -0.748618 -1.067994 6.798303
v -1.236408 -1.585568 5.480490
v -0.387306 -1.409989 6.957705
v -0.319925 -1.607931 6.508676
v -1.639633 2.556298 3.863736
v -1.255645 2.467144 4.203800
v -1.031362 2.382663 4.615849
v -4.253081 2.772296 3.315305
v -4.530000 2.910000 3.339685
v 0.463928 0.955357 6.633583
v 4.253081 2.577646 3.279702
v 0.416106 -1.466449 6.447657
v 7.087960 5.434801 0.099620
v 2.628639 2.035898 3.848121
v 3.198363 1.985815 3.796952
v 3.775151 2.039402 3.646194
v 4.465819 2.422950 3.155168
v 2.164289 2.189867 3.851822
v 3.208229 3.223926 4.115821
v 2.673803 3.205337 4.092203
v 3.745193 3.165286 3.972409
v 4.161018 3.059069 3.719554
v 5.062006 1.934418 2.776093
v 2.266659 -7.425767 4.389812
v 4.445859 2.663991 3.173422
v 7.214530 2.263009 0.073150
v 5.799793 2.349546 2.204059
v 2.844939 -0.720868 4.433130
v 0.711452 -3.329355 5.877045
v 0.606033 -3.924562 5.444923
v 1.431615 -3.500952 5.496190
v 1.914910 -3.803145 5.028931
v 1.131043 -3.973937 5.189649
v 1.563548 -4.082763 4.842264
v 2.650112 -5.003649 4.188484
v 0.427049 -1.094133 7.360529
v 0.496396 -0.475658 7.440358
v 5.253307 3.881582 3.363159
v 1.718698 0.974609 4.558359
v 1.608635 -0.942516 5.814193
v 1.651267 -0.610868 5.581319
v 4.765501 -0.701554 3.534632
v 0.478306 0.295767 7.101013
v 3.734964 4.508231 4.550454
v 4.588603 4.302037 4.048483
v 6.279331 6.615427 1.425850
v 1.220941 4.142166 5.106035
v 2.193489 3.100317 4.000575
v 3.102642 -4.352983 4.095905
v 6.719682 -4.788645 -1.745401
v 1.193824 -1.306795 5.737747
v 0.729766 -1.593711 5.833208
v 2.456206 -4.342620 4.283885
v 2.204823 -4.304508 4.162499
v 4.985894 4.802462 3.751976
v 1.592294 -1.257709 5.456949
v 2.644548 4.524654 4.921558
v 2.760292 5.100972 5.015989
v 3.523964 8.005976 3.729162
v 5.599763 5.715470 2.724258
v 3.063932 6.566144 4.529981
v 5.720968 4.254584 2.830852
v 6.374393 4.785590 1.591691
v 0.672728 -3.688015 5.737804
v 1.262560 -3.787691 5.417779
v 1.732553 -3.952766 5.000579
v 1.043625 -1.464972 5.662455
v 2.321234 -4.329069 4.258156
v 2.056846 -4.477671 4.520884
v 2.153084 -4.276321 4.038094
v 0.946874 -1.035249 6.512274
v 1.469132 -4.036351 4.604908
v 1.024340 -3.989851 4.926693
v 0.533422 -3.993222 5.138203
v 0.769720 -6.095394 4.985884
v 0.699606 -5.291850 5.448305
v 0.669687 -4.949769 5.509613
v 0.630947 -4.695100 5.449371
v 0.583218 -4.517982 5.339869
v 1.537170 -4.423205 4.745471
v 1.615600 -4.475942 4.813632
v 1.729053 -4.618680 4.854464
v 1.838624 -4.828745 4.823738
v 2.368250 -3.106236 4.868096
v 7.542244 -1.049282 -2.431321
v 1.826614 -4.399530 4.399022
v 1.929558 -4.411830 4.497053
v 0.597442 -2.013685 5.866456
v 1.405627 -1.714196 5.241087
v 0.662449 -1.819321 5.863759
v 2.342340 0.572222 4.294303
v 3.327324 0.104863 4.113860
v 1.726175 -0.919165 5.273355
v 5.133204 7.485602 2.660442
v 4.538641 6.319908 3.683424
v 3.986562 5.109488 4.466314
v 2.169681 -5.440433 4.455874
v 1.395634 5.011963 5.316031
v 1.619500 6.599217 4.921105
v 1.891399 8.236377 4.274997
v 4.195832 2.235205 3.375099
v 5.733342 1.411738 2.431726
v 1.859887 2.355757 3.843181
v 4.988612 3.074654 3.083858
v 1.303263 1.416453 4.831091
v 1.305757 -0.672779 6.415959
v 6.465170 0.937119 1.689873
v 5.258659 0.945811 2.974312
v 4.432338 0.722096 3.522615
v 3.300681 0.861641 3.872784
v 2.430178 1.131492 4.039035
v 1.820731 1.467954 4.224124
v 0.563221 2.307693 5.566789
v 6.338145 -0.529279 1.881175
v 5.587698 3.208071 2.687839
v 0.242624 -1.462857 7.071491
v 1.611251 0.339326 4.895421
v 7.743095 2.364999 -2.005167
v 1.391142 1.851048 4.448999
v 1.785794 -0.978284 4.850470
v 4.670959 2.664461 3.084075
v 1.333970 -0.283761 6.097047
v 7.270895 -2.890917 -2.252455
v 1.856432 2.585245 3.757904
v 0.923388 0.073077 6.671944
v 5.000589 -6.135128 1.892524
v 5.085276 -7.178590 0.714712
v 7.159291 -0.811820 -0.072044
v 5.843051 -5.248023 0.924091
v 6.847258 3.662916 0.724695
v 2.412942 -8.258853 4.119214
v 0.179909 -1.689864 6.573301
v 2.103655 -0.163946 4.566119
v 6.407571 2.236021 1.560843
v 3.670075 2.360153 3.635230
v 3.177186 2.294265 3.775704
v 2.196121 -4.598321 4.479786
v 6.234883 -1.944430 1.663542
v 1.292924 -9.295920 4.094063
v 3.210651 -8.533278 2.802002
v 4.068926 -7.993109 1.925120
v 2.724032 2.315802 3.777151
v 2.288460 2.398891 3.697603
v 1.998311 2.496547 3.689148
v 6.130040 3.399261 2.038516
v 2.288460 2.886504 3.775031
v 2.724032 2.961810 3.871767
v 3.177186 2.964136 3.876973
v 3.670075 2.927714 3.724325
v 4.018389 2.857357 3.482983
v 7.555811 4.106811 -0.991917
v 4.018389 2.483695 3.440898
v 1.776217 -2.683945 5.213116
v 1.222237 -1.182443 5.952465
v 0.731493 -2.536683 5.815343
v 4.135272 -6.996638 2.671970
v 3.311811 -7.660814 3.382963
v 1.313701 -8.639995 4.702456
v 5.940524 -6.223629 -0.631468
v 1.998311 2.743838 3.744030
v 0.901447 1.236992 5.754256
v 2.308977 -8.974196 3.609071
v 6.954154 -2.439843 -0.131163
v 1.098819 -4.458787 5.120728
v 1.181124 -4.579996 5.189565
v 1.255818 -4.787900 5.237051
v 1.325085 -5.106506 5.205010
v 1.546388 -5.819392 4.757894
v 1.953754 -4.183891 4.431714
v 2.117802 -4.137093 4.555097
v 2.285339 -4.051196 4.582438
v 2.850160 -3.665720 4.484994
v 5.278538 -2.238942 2.861224
v 0.946709 1.907628 5.196779
v 1.314173 3.104912 4.231404
v 1.780000 2.860000 3.881555
v 1.845110 -4.098879 4.247264
v 5.436187 -4.030482 2.109852
v 0.766444 3.182132 4.861453
v 1.938616 -6.614409 4.521085
v 0.516573 1.583573 6.148363
v 1.246815 0.230297 5.681036
v 0.997827 -6.930921 4.979577
v 3.288807 -5.382514 3.795753
v 2.311631 -1.566237 4.590085
v 2.680250 -6.111567 4.096152
v 3.832928 -1.537326 4.137731
v 2.961860 -2.274215 4.440943
v 4.386901 -2.683286 3.643886
v 1.217295 -7.834465 4.969286
v 1.542374 -0.136843 5.201008
v 3.878377 -6.041763 3.311080
v 3.084037 -6.809842 3.814195
v 3.747321 -4.503544 3.726453
v 6.094129 -3.205991 1.473482
v 4.588995 -4.728726 2.983221
v 6.583231 -3.941269 0.070268
v 3.492580 -3.195820 4.130198
v 1.255543 0.802341 5.307551
v 1.126122 -0.933601 6.538785
v 1.443109 -1.142774 5.905127
v 0.923043 -0.529041 7.003423
v 1.755386 3.529117 4.327695
v 2.632589 3.713828 4.364628
v 3.388062 3.721976 4.309028
v 4.075766 3.675413 4.076063
v 4.622910 3.474691 3.646321
v 5.171755 2.535753 2.670867
v 7.297331 0.763172 -0.048769
v 4.706828 1.651000 3.109532
v 4.071712 1.476821 3.476944
v 3.269817 1.470659 3.731945
v 2.527572 1.617311 3.865444
v 1.970894 1.858505 3.961782
v 1.579543 2.097941 4.084996
v 7.664182 0.673132 -2.435867
v 1.397041 -1.340139 5.630378
v 0.884838 0.658740 6.233232
v 0.767097 -0.968034 7.077932
v 0.460213 -1.334105 6.787447
v 0.748618 -1.067994 6.798303
v 1.236408 -1.585568 5.480490
v 0.387306 -1.409989 6.957705
v 0.319925 -1.607931 6.508676
v 1.639633 2.556298 3.863736
v 1.255645 2.467144 4.203800
v 1.031362 2.382663 4.615849
v 4.253081 2.772296 3.315305
v 4.530000 2.910000 3.339685
vn -0.3199 -0.2053 0.9249
vn -0.5287 -0.1527 0.8349
vn 0.3199 -0.2053 0.9249
vn 0.5287 -0.1527 0.8349
vn 0.9689 -0.0381 0.2445
vn -0.9689 -0.0381 0.2445
vn 0.9175 0.0575 0.3936
vn -0.9175 0.0575 0.3936
vn 0.1717 -0.3726 0.9120
vn -0.1717 -0.3726 0.9120
vn 0.1834 -0.3503 0.9185
vn -0.1834 -0.3503 0.9185
vn 0.3995 0.2364 0.8857
vn -0.3995 0.2364 0.8857
vn 0.3330 0.4342 0.8370
vn -0.3330 0.4342 0.8370
vn 0.3635 -0.3710 0.8545
vn -0.3635 -0.3710 0.8545
vn 0.3692 -0.4413 0.8179
vn -0.3692 -0.4413 0.8179
vn 0.6797 0.4020 0.6136
vn -0.6797 0.4020 0.6136
vn 0.7180 0.2825 0.6361
vn -0.7180 0.2825 0.6361
vn 0.6194 0.2596 0.7410
vn -0.6194 0.2596 0.7410
vn 0.5359 0.5435 0.6460
vn -0.5359 0.5435 0.6460
vn 0.5125 0.2865 0.8095
vn -0.5125 0.2865 0.8095
vn 0.5941 0.3377 0.7301
vn -0.5941 0.3377 0.7301
vn 0.1671 -0.6910 0.7033
vn -0.1671 -0.6910 0.7033
vn 0.1513 -0.6748 0.7223
vn -0.1513 -0.6748 0.7223
vn -0.0813 -0.1563 0.9844
vn 0.0813 -0.1563 0.9844
vn 0.0022 -0.2167 0.9762
vn -0.0022 -0.2167 0.9762
vn 0.4222 0.1064 0.9002
vn -0.4222 0.1064 0.9002
vn 0.3155 0.2981 0.9009
vn -0.3155 0.2981 0.9009
vn 0.4436 -0.4702 0.7630
vn -0.4436 -0.4702 0.7630
vn 0.3946 -0.6110 0.6863
vn -0.3946 -0.6110 0.6863
vn 0.0294 0.2108 0.9771
vn -0.0294 0.2108 0.9771
vn 0.0559 0.2336 0.9707
vn -0.0559 0.2336 0.9707
vn 0.9071 0.2256 0.3554
vn -0.9071 0.2256 0.3554
vn 0.8851 0.1858 0.4267
vn -0.8851 0.1858 0.4267
vn 0.5333 0.0794 0.8422
vn -0.5333 0.0794 0.8422
vn 0.5192 -0.0444 0.8535
vn -0.5192 -0.0444 0.8535
vn 0.4280 -0.6422 0.6359
vn -0.4280 -0.6422 0.6359
vn 0.2708 -0.7284 0.6293
vn -0.2708 -0.7284 0.6293
vn -0.3108 -0.9485 -0.0618
vn 0.3108 -0.9485 -0.0618
vn -0.3532 -0.9112 -0.2120
vn 0.3532 -0.9112 -0.2120
vn 0.5130 -0.1382 0.8472
vn -0.5130 -0.1382 0.8472
vn 0.4828 -0.5316 0.6959
vn -0.4828 -0.5316 0.6959
vn 0.3123 0.2054 0.9275
vn -0.3123 0.2054 0.9275
vn 0.2934 0.2295 0.9281
vn -0.2934 0.2295 0.9281
vn 0.6312 -0.1516 0.7607
vn -0.6312 -0.1516 0.7607
vn 0.4895 -0.1882 0.8514
vn -0.4895 -0.1882 0.8514
vn 0.1302 -0.4860 0.8642
vn -0.1302 -0.4860 0.8642
vn 0.1585 -0.5027 0.8498
vn -0.1585 -0.5027 0.8498
vn 0.5424 0.3691 0.7547
vn -0.5424 0.3691 0.7547
vn -0.0776 0.6548 0.7518
vn 0.0776 0.6548 0.7518
vn 0.2035 -0.7372 0.6443
vn -0.2035 -0.7372 0.6443
vn 0.2204 -0.8038 0.5525
vn -0.2204 -0.8038 0.5525
vn 0.1851 -0.6731 0.7160
vn -0.1851 -0.6731 0.7160
vn 0.1966 -0.5727 0.7958
vn -0.1966 -0.5727 0.7958
vn 0.5021 -0.0098 0.8647
vn -0.5021 -0.0098 0.8647
vn 0.4823 -0.0996 0.8703
vn -0.4823 -0.0996 0.8703
vn 0.8277 -0.2244 0.5144
vn -0.8277 -0.2244 0.5144
vn 0.7826 -0.2220 0.5816
vn -0.7826 -0.2220 0.5816
vn 0.5527 0.1878 0.8119
vn -0.5527 0.1878 0.8119
vn 0.5622 0.1420 0.8147
vn -0.5622 0.1420 0.8147
vn 0.8551 0.0907 0.5104
vn -0.8551 0.0907 0.5104
vn 0.8833 0.0876 0.4606
vn -0.8833 0.0876 0.4606
vn 0.2712 0.3687 0.8891
vn -0.2712 0.3687 0.8891
vn 0.3137 0.3885 0.8664
vn -0.3137 0.3885 0.8664
vn 0.2415 0.1121 0.9639
vn -0.2415 0.1121 0.9639
vn 0.2627 0.0842 0.9612
vn -0.2627 0.0842 0.9612
vn 0.6441 0.2292 0.7298
vn -0.6441 0.2292 0.7298
vn 0.5268 0.3433 0.7776
vn -0.5268 0.3433 0.7776
vn 0.6192 -0.1324 0.7740
vn -0.6192 -0.1324 0.7740
vn 0.6608 -0.0040 0.7505
vn -0.6608 -0.0040 0.7505
vn 0.1693 0.0388 0.9848
vn -0.1693 0.0388 0.9848
vn 0.1031 0.0965 0.9900
vn -0.1031 0.0965 0.9900
vn 0.5268 -0.2102 0.8236
vn -0.5268 -0.2102 0.8236
vn 0.6593 -0.2418 0.7119
vn -0.6593 -0.2418 0.7119
vn 0.5800 0.0443 0.8134
vn -0.5800 0.0443 0.8134
vn 0.5771 0.1847 0.7955
vn -0.5771 0.1847 0.7955
vn 0.1406 -0.1858 0.9725
vn -0.1406 -0.1858 0.9725
vn 0.1506 -0.1616 0.9753
vn -0.1506 -0.1616 0.9753
vn 0.3075 0.0279 0.9512
vn -0.3075 0.0279 0.9512
vn 0.2478 0.0235 0.9685
vn -0.2478 0.0235 0.9685
vn 0.5328 -0.5413 0.6505
vn -0.5328 -0.5413 0.6505
vn 0.4913 -0.6006 0.6308
vn -0.4913 -0.6006 0.6308
vn 0.5367 0.0651 0.8413
vn -0.5367 0.0651 0.8413
vn 0.6051 -0.2168 0.7661
vn -0.6051 -0.2168 0.7661
vn 0.7568 0.0506 0.6517
vn -0.7568 0.0506 0.6517
vn 0.8824 -0.1009 0.4596
vn -0.8824 -0.1009 0.4596
vn -0.0090 -0.6762 0.7367
vn 0.0090 -0.6762 0.7367
vn -0.0051 -0.6717 0.7409
vn 0.0051 -0.6717 0.7409
vn 0.2354 -0.8050 0.5445
vn -0.2354 -0.8050 0.5445
vn 0.2651 -0.6579 0.7048
vn -0.2651 -0.6579 0.7048
vn 0.7634 0.3536 0.5406
vn -0.7634 0.3536 0.5406
vn 0.8059 0.3638 0.4671
vn -0.8059 0.3638 0.4671
vn 0.7192 0.2134 0.6612
vn -0.7192 0.2134 0.6612
vn 0.7885 0.2284 0.5710
vn -0.7885 0.2284 0.5710
vn 0.1686 -0.3176 0.9331
vn -0.1686 -0.3176 0.9331
vn 0.4328 -0.0586 0.8996
vn -0.4328 -0.0586 0.8996
vn 0.5976 0.2702 0.7549
vn -0.5976 0.2702 0.7549
vn 0.5375 0.2673 0.7998
vn -0.5375 0.2673 0.7998
vn 0.5411 -0.4389 0.7173
vn -0.5411 -0.4389 0.7173
vn 0.5219 -0.6643 0.5351
vn -0.5219 -0.6643 0.5351
vn 0.6502 -0.3747 0.6609
vn -0.6503 -0.3747 0.6609
vn 0.5974 -0.1890 0.7794
vn -0.5974 -0.1890 0.7794
vn 0.5378 0.3223 0.7790
vn -0.5378 0.3223 0.7790
vn 0.6154 0.0896 0.7831
vn -0.6154 0.0896 0.7831
vn 0.4023 -0.8172 0.4128
vn -0.4023 -0.8172 0.4128
vn 0.2460 -0.8771 0.4126
vn -0.2460 -0.8771 0.4126
vn 0.1528 0.5264 0.8364
vn -0.1528 0.5264 0.8364
vn 0.2861 0.5652 0.7737
vn -0.2861 0.5652 0.7737
vn 0.8747 0.3858 0.2935
vn -0.8747 0.3858 0.2935
vn 0.8854 0.3971 0.2414
vn -0.8854 0.3971 0.2414
vn 0.8163 -0.4020 0.4149
vn -0.8163 -0.4020 0.4149
vn 0.7999 -0.3931 0.4535
vn -0.7999 -0.3931 0.4535
vn 0.8253 0.1493 0.5446
vn -0.8253 0.1493 0.5446
vn 0.7510 0.3674 0.5487
vn -0.7510 0.3674 0.5487
vn 0.2716 -0.3900 0.8798
vn -0.2716 -0.3900 0.8798
vn 0.4250 -0.3104 0.8503
vn -0.4250 -0.3104 0.8503
vn 0.7354 0.2872 0.6138
vn -0.7354 0.2872 0.6138
vn 0.6917 0.3480 0.6329
vn -0.6917 0.3480 0.6329
vn 0.6579 -0.1928 0.7280
vn -0.6579 -0.1928 0.7280
vn 0.6750 -0.1180 0.7283
vn -0.6750 -0.1180 0.7283
vn 0.2546 0.3181 0.9132
vn -0.2546 0.3181 0.9132
vn 0.3411 0.3713 0.8636
vn -0.3411 0.3713 0.8636
vn 0.5869 -0.1597 0.7937
vn -0.5869 -0.1597 0.7937
vn 0.6296 0.1585 0.7606
vn -0.6296 0.1585 0.7606
vn 0.2509 0.2302 0.9402
vn -0.2509 0.2302 0.9402
vn 0.2243 0.2877 0.9311
vn -0.2243 0.2877 0.9311
vn 0.5526 -0.4275 0.7154
vn -0.5526 -0.4275 0.7154
vn 0.5192 -0.4017 0.7544
vn -0.5192 -0.4017 0.7544
vn 0.4900 -0.0836 0.8677
vn -0.4900 -0.0836 0.8677
vn 0.5848 0.0163 0.8110
vn -0.5848 0.0163 0.8110
vn 0.8421 -0.5305 0.0973
vn -0.8421 -0.5305 0.0973
vn 0.8321 -0.5428 0.1144
vn -0.8321 -0.5428 0.1144
vn 0.7981 -0.1802 0.5749
vn -0.7981 -0.1802 0.5749
vn 0.7804 -0.1812 0.5985
vn -0.7804 -0.1812 0.5985
vn -0.1010 0.9685 0.2276
vn 0.1010 0.9685 0.2276
vn -0.0838 0.9638 0.2532
vn 0.0838 0.9638 0.2532
vn 0.6792 -0.1092 0.7258
vn -0.6792 -0.1092 0.7258
vn 0.7667 -0.0477 0.6402
vn -0.7667 -0.0477 0.6402
vn 0.9025 0.0148 0.4305
vn -0.9025 0.0148 0.4305
vn 0.8751 0.0861 0.4762
vn -0.8751 0.0861 0.4762
vn 0.7287 0.0262 0.6843
vn -0.7287 0.0262 0.6843
vn 0.7280 0.0542 0.6834
vn -0.7280 0.0542 0.6834
vn 0.2395 -0.6764 0.6965
vn -0.2395 -0.6764 0.6965
vn 0.2243 -0.6682 0.7093
vn -0.2243 -0.6682 0.7093
vn 0.7639 0.3841 0.5185
vn -0.7639 0.3841 0.5185
vn 0.7274 0.4415 0.5254
vn -0.7274 0.4415 0.5254
vn 0.4452 -0.1641 0.8802
vn -0.4452 -0.1641 0.8802
vn 0.4846 -0.0158 0.8746
vn -0.4846 -0.0158 0.8746
vn -0.1200 0.2822 0.9518
vn 0.1200 0.2822 0.9518
vn 0.1771 0.5140 0.8393
vn -0.1771 0.5140 0.8393
vn 0.5065 0.0837 0.8582
vn -0.5065 0.0837 0.8582
vn 0.4772 0.0562 0.8770
vn -0.4772 0.0562 0.8770
vn 0.1689 0.0287 0.9852
vn -0.1689 0.0287 0.9852
vn 0.1698 0.0300 0.9850
vn -0.1698 0.0300 0.9850
vn 0.2700 0.2059 0.9406
vn -0.2700 0.2059 0.9406
vn 0.3357 0.2286 0.9138
vn -0.3357 0.2286 0.9138
vn 0.4450 -0.1627 0.8806
vn -0.4450 -0.1627 0.8806
vn 0.4539 -0.1919 0.8702
vn -0.4539 -0.1919 0.8702
vn 0.8576 -0.1912 0.4774
vn -0.8576 -0.1912 0.4774
vn 0.7925 -0.3130 0.5235
vn -0.7925 -0.3130 0.5235
vn 0.0051 -0.6705 0.7419
vn -0.0051 -0.6705 0.7419
vn -0.0252 -0.7308 0.6822
vn 0.0252 -0.7308 0.6822
vn 0.5682 -0.3701 0.7349
vn -0.5682 -0.3701 0.7349
vn 0.4987 -0.3288 0.8020
vn -0.4987 -0.3288 0.8020
vn 0.1191 -0.6797 0.7238
vn -0.1191 -0.6797 0.7238
vn 0.1499 -0.7364 0.6598
vn -0.1499 -0.7364 0.6598
vn 0.5832 -0.0732 0.8090
vn -0.5832 -0.0732 0.8090
vn 0.4991 -0.0604 0.8644
vn -0.4991 -0.0604 0.8644
vn 0.5860 -0.4300 0.6868
vn -0.5860 -0.4300 0.6868
vn 0.5627 -0.4291 0.7066
vn -0.5627 -0.4291 0.7066
vn 0.5095 -0.0720 0.8575
vn -0.5095 -0.0720 0.8575
vn 0.5091 -0.0334 0.8601
vn -0.5091 -0.0334 0.8601
vn -0.1268 0.9126 0.3886
vn 0.1268 0.9126 0.3886
vn 0.3157 0.7968 0.5153
vn -0.3157 0.7968 0.5153
vn 0.9139 -0.0860 0.3967
vn -0.9139 -0.0860 0.3967
vn 0.9010 -0.0215 0.4334
vn -0.9010 -0.0215 0.4334
vn 0.1880 -0.7846 0.5908
vn -0.1880 -0.7846 0.5908
vn 0.1920 -0.8115 0.5519
vn -0.1920 -0.8115 0.5519
vn 0.3167 0.2001 0.9272
vn -0.3167 0.2001 0.9272
vn 0.3801 -0.0685 0.9224
vn -0.3801 -0.0685 0.9224
vn 0.5318 -0.5299 0.6606
vn -0.5318 -0.5299 0.6606
vn 0.6349 -0.6604 0.4009
vn -0.6349 -0.6604 0.4009
vn 0.9437 -0.2683 0.1935
vn -0.9437 -0.2683 0.1935
vn 0.9767 0.0242 0.2133
vn -0.9767 0.0242 0.2133
vn 0.2007 -0.8124 0.5475
vn -0.2007 -0.8124 0.5475
vn 0.1861 -0.8474 0.4972
vn -0.1861 -0.8474 0.4972
vn 0.5557 -0.2053 0.8056
vn -0.5557 -0.2053 0.8056
vn 0.6413 -0.1095 0.7594
vn -0.6413 -0.1095 0.7594
vn 0.1782 -0.8452 0.5038
vn -0.1782 -0.8452 0.5038
vn 0.0557 -0.9559 0.2884
vn -0.0557 -0.9559 0.2884
vn 0.7354 -0.2290 0.6378
vn -0.7354 -0.2290 0.6378
vn 0.6529 -0.1960 0.7316
vn -0.6529 -0.1960 0.7316
vn 0.7258 -0.4376 0.5307
vn -0.7258 -0.4376 0.5307
vn 0.7041 -0.4773 0.5258
vn -0.7041 -0.4773 0.5258
vn 0.3984 0.2133 0.8921
vn -0.3984 0.2133 0.8921
vn 0.5124 0.2892 0.8085
vn -0.5124 0.2892 0.8085
vn 0.4253 0.5063 0.7502
vn -0.4253 0.5063 0.7502
vn 0.4409 0.5111 0.7378
vn -0.4409 0.5111 0.7378
vn 0.7264 -0.0576 0.6849
vn -0.7264 -0.0576 0.6849
vn 0.7903 -0.1491 0.5944
vn -0.7903 -0.1491 0.5944
vn 0.5125 0.5867 0.6270
vn -0.5125 0.5867 0.6270
vn 0.2793 0.7548 0.5935
vn -0.2793 0.7548 0.5935
vn 0.1940 -0.2669 0.9440
vn -0.1940 -0.2669 0.9440
vn 0.2228 -0.2011 0.9539
vn -0.2228 -0.2011 0.9539
vn 0.5050 0.3606 0.7842
vn -0.5050 0.3606 0.7842
vn 0.4600 0.5622 0.6872
vn -0.4600 0.5622 0.6872
vn 0.3072 0.2987 0.9036
vn -0.3072 0.2987 0.9036
vn 0.2818 0.3614 0.8888
vn -0.2818 0.3614 0.8888
vn 0.6107 0.2144 0.7622
vn -0.6107 0.2144 0.7622
vn 0.7229 0.2423 0.6471
vn -0.7229 0.2423 0.6471
vn 0.9836 -0.0692 0.1666
vn -0.9836 -0.0692 0.1666
vn 0.9840 -0.0885 0.1546
vn -0.9840 -0.0885 0.1546
vn 0.1056 0.2527 0.9618
vn -0.1056 0.2527 0.9618
vn 0.1029 0.2438 0.9644
vn -0.1029 0.2438 0.9644
vn 0.9646 0.2594 0.0471
vn -0.9646 0.2594 0.0471
vn 0.9855 0.1170 0.1226
vn -0.9855 0.1170 0.1226
vn 0.0662 0.5219 0.8504
vn -0.0662 0.5219 0.8504
vn 0.0709 0.5383 0.8398
vn -0.0709 0.5383 0.8398
vn 0.1551 -0.1138 0.9813
vn -0.1551 -0.1138 0.9813
vn 0.0703 -0.2474 0.9664
vn -0.0703 -0.2474 0.9664
vn 0.5235 0.2844 0.8032
vn -0.5235 0.2844 0.8032
vn 0.4701 0.4264 0.7728
vn -0.4701 0.4264 0.7728
vn 0.1058 0.2104 0.9719
vn -0.1058 0.2104 0.9719
vn 0.0065 0.0692 0.9976
vn -0.0065 0.0692 0.9976
vn 0.4608 0.6538 0.6002
vn -0.4608 0.6538 0.6002
vn 0.1873 0.8694 0.4571
vn -0.1873 0.8694 0.4571
vn 0.4411 0.5445 0.7134
vn -0.4411 0.5445 0.7134
vn 0.3935 0.5317 0.7500
vn -0.3935 0.5317 0.7500
vn 0.0302 0.9952 0.0932
vn -0.0302 0.9952 0.0932
vn 0.2348 0.8808 0.4112
vn -0.2348 0.8808 0.4112
vn 0.8793 -0.3767 0.2914
vn -0.8793 -0.3767 0.2914
vn 0.8417 -0.3727 0.3907
vn -0.8417 -0.3727 0.3907
vn 0.9187 -0.3268 0.2216
vn -0.9187 -0.3268 0.2216
vn 0.9028 -0.3365 0.2676
vn -0.9028 -0.3365 0.2676
vn 0.8031 -0.3150 0.5057
vn -0.8031 -0.3150 0.5057
vn 0.7508 -0.3731 0.5451
vn -0.7508 -0.3731 0.5451
vn -0.1502 -0.9813 0.1204
vn 0.1502 -0.9813 0.1204
vn -0.1864 -0.9755 -0.1166
vn 0.1864 -0.9755 -0.1166
vn 0.3113 0.5317 0.7877
vn -0.3113 0.5317 0.7877
vn 0.3534 0.5460 0.7596
vn -0.3534 0.5460 0.7596
vn 0.4225 -0.1671 0.8909
vn -0.4225 -0.1671 0.8909
vn 0.2612 0.4054 0.8760
vn -0.2612 0.4054 0.8760
vn 0.1634 -0.2925 0.9422
vn -0.1634 -0.2925 0.9422
vn 0.1900 -0.3260 0.9261
vn -0.1900 -0.3260 0.9261
vn 0.0130 -0.9764 0.2155
vn -0.0130 -0.9764 0.2155
vn 0.0280 -0.9984 0.0491
vn -0.0280 -0.9984 0.0491
vn 0.4886 -0.3650 0.7925
vn -0.4886 -0.3650 0.7925
vn 0.5602 -0.3432 0.7539
vn -0.5602 -0.3432 0.7539
vn 0.4706 0.1837 0.8630
vn -0.4706 0.1837 0.8630
vn 0.4594 0.0942 0.8832
vn -0.4594 0.0942 0.8832
vn 0.3118 -0.2143 0.9257
vn -0.3118 -0.2143 0.9257
vn 0.4089 -0.0435 0.9115
vn -0.4089 -0.0435 0.9115
vn 0.4952 0.2267 0.8387
vn -0.4952 0.2267 0.8387
vn 0.4299 0.2578 0.8653
vn -0.4299 0.2578 0.8653
vn 0.9843 -0.0852 0.1545
vn -0.9843 -0.0852 0.1545
vn 0.9682 0.0333 0.2479
vn -0.9682 0.0333 0.2479
vn 0.1968 0.2105 0.9576
vn -0.1968 0.2105 0.9576
vn 0.2581 0.2556 0.9317
vn -0.2581 0.2556 0.9317
vn 0.0524 0.3026 0.9517
vn -0.0524 0.3026 0.9517
vn 0.1063 0.3497 0.9308
vn -0.1063 0.3497 0.9308
vn 0.7895 -0.4776 0.3853
vn -0.7895 -0.4776 0.3853
vn 0.6265 -0.6790 0.3827
vn -0.6265 -0.6790 0.3827
vn -0.5106 -0.8548 -0.0932
vn 0.5106 -0.8548 -0.0932
vn -0.4947 -0.8690 0.0088
vn 0.4947 -0.8690 0.0088
vn 0.7466 -0.0601 0.6626
vn -0.7466 -0.0601 0.6626
vn 0.7217 0.2969 0.6253
vn -0.7217 0.2969 0.6253
vn 0.7393 0.0989 0.6660
vn -0.7393 0.0989 0.6660
vn 0.7321 0.1113 0.6721
vn -0.7321 0.1113 0.6721
vn 0.5563 -0.0930 0.8258
vn -0.5563 -0.0930 0.8258
vn 0.5988 -0.1441 0.7878
vn -0.5988 -0.1441 0.7878
vn 0.7235 0.0181 0.6901
vn -0.7235 0.0181 0.6901
vn 0.5236 0.1296 0.8420
vn -0.5236 0.1296 0.8420
vn 0.2619 -0.5490 0.7937
vn -0.2619 -0.5490 0.7937
vn 0.0729 -0.3220 0.9439
vn -0.0729 -0.3220 0.9439
vn 0.2070 -0.8967 0.3913
vn -0.2070 -0.8967 0.3913
vn 0.2293 -0.8963 0.3795
vn -0.2293 -0.8963 0.3795
vn 0.2511 -0.5506 0.7961
vn -0.2511 -0.5506 0.7961
vn 0.1267 -0.7351 0.6660
vn -0.1267 -0.7351 0.6660
vn 0.3939 0.5410 0.7431
vn -0.3939 0.5410 0.7431
vn 0.3532 0.5284 0.7720
vn -0.3532 0.5284 0.7720
vn 0.3687 -0.0398 0.9287
vn -0.3687 -0.0398 0.9287
vn 0.4913 -0.0253 0.8706
vn -0.4913 -0.0253 0.8706
vn 0.6949 -0.1682 0.6991
vn -0.6949 -0.1682 0.6991
vn 0.6587 -0.1076 0.7446
vn -0.6587 -0.1076 0.7446
vn 0.8857 -0.0065 0.4643
vn -0.8857 -0.0065 0.4643
vn 0.8778 -0.0003 0.4791
vn -0.8778 -0.0003 0.4791
vn 0.8814 0.1550 0.4461
vn -0.8814 0.1550 0.4461
vn 0.8165 0.3830 0.4321
vn -0.8165 0.3830 0.4321
vn 0.2296 -0.5977 0.7682
vn -0.2296 -0.5977 0.7682
vn 0.2956 -0.6023 0.7415
vn -0.2956 -0.6023 0.7415
vn 0.9234 0.0099 0.3837
vn -0.9234 0.0099 0.3837
vn 0.8956 0.0348 0.4435
vn -0.8956 0.0348 0.4435
vn -0.0039 -0.1495 0.9888
vn 0.0039 -0.1495 0.9888
vn -0.0106 -0.1449 0.9894
vn 0.0106 -0.1449 0.9894
vn 0.7644 -0.4185 0.4904
vn -0.7644 -0.4185 0.4904
vn 0.7629 -0.4173 0.4938
vn -0.7629 -0.4173 0.4938
vn 0.8113 0.3335 0.4803
vn -0.8113 0.3335 0.4803
vn 0.8050 0.3461 0.4818
vn -0.8050 0.3461 0.4818
vn 0.5503 0.0356 0.8342
vn -0.5503 0.0356 0.8342
vn 0.5396 -0.1071 0.8351
vn -0.5396 -0.1071 0.8351
vn 0.5469 -0.1298 0.8271
vn -0.5469 -0.1298 0.8271
vn 0.5108 -0.0962 0.8543
vn -0.5108 -0.0962 0.8543
vn 0.1565 -0.0563 0.9861
vn -0.1565 -0.0563 0.9861
vn 0.3249 -0.2643 0.9081
vn -0.3249 -0.2643 0.9081
vn 0.5251 -0.7974 0.2972
vn -0.5251 -0.7974 0.2972
vn 0.5737 -0.7778 0.2568
vn -0.5737 -0.7778 0.2568
vn 0.1367 0.0528 0.9892
vn -0.1367 0.0528 0.9892
vn 0.1588 0.0726 0.9846
vn -0.1588 0.0726 0.9846
vn 0.1315 -0.8061 0.5770
vn -0.1315 -0.8061 0.5770
vn 0.1168 -0.7855 0.6078
vn -0.1168 -0.7855 0.6078
vn 0.2831 -0.1434 0.9483
vn -0.2831 -0.1434 0.9483
vn 0.2894 -0.1484 0.9456
vn -0.2894 -0.1484 0.9456
vn 0.0336 -0.9766 0.2125
vn -0.0336 -0.9766 0.2125
vn 0.0343 -0.9770 0.2106
vn -0.0343 -0.9770 0.2106
vn 0.8076 0.1093 0.5795
vn -0.8076 0.1093 0.5795
vn 0.8596 0.1078 0.4995
vn -0.8596 0.1078 0.4995
vn 0.5467 0.1608 0.8218
vn -0.5467 0.1608 0.8218
vn 0.6019 0.0298 0.7980
vn -0.6020 0.0298 0.7980
vn -0.2040 -0.1419 0.9686
vn 0.2040 -0.1419 0.9686
vn -0.1888 -0.1540 0.9699
vn 0.1888 -0.1540 0.9699
vn 0.4399 0.1483 0.8857
vn -0.4399 0.1483 0.8857
vn 0.3817 0.1308 0.9150
vn -0.3817 0.1308 0.9150
vn 0.4664 0.2496 0.8486
vn -0.4664 0.2496 0.8486
vn 0.5316 0.0547 0.8452
vn -0.5316 0.0547 0.8452
vn 0.8889 0.1494 0.4331
vn -0.8889 0.1494 0.4331
vn 0.8582 0.2714 0.4358
vn -0.8582 0.2714 0.4358
vn 0.5100 0.1706 0.8431
vn -0.5100 0.1706 0.8431
vn 0.5931 0.0737 0.8018
vn -0.5931 0.0737 0.8018
vn 0.8212 -0.2011 0.5340
vn -0.8212 -0.2011 0.5340
vn 0.7766 -0.2660 0.5710
vn -0.7766 -0.2660 0.5710
vn 0.5600 0.2960 0.7738
vn -0.5600 0.2960 0.7738
vn 0.3789 0.3274 0.8656
vn -0.3789 0.3274 0.8656
vn 0.7180 -0.6691 0.1918
vn -0.7180 -0.6691 0.1918
vn 0.6784 -0.7338 -0.0365
vn -0.6784 -0.7338 -0.0365
vn 0.7504 -0.2537 0.6103
vn -0.7504 -0.2537 0.6103
vn 0.7606 -0.2072 0.6153
vn -0.7606 -0.2072 0.6153
vn 0.4199 -0.2453 0.8738
vn -0.4199 -0.2453 0.8738
vn 0.4494 -0.3293 0.8304
vn -0.4494 -0.3293 0.8304
vn 0.5277 -0.1772 0.8307
vn -0.5277 -0.1772 0.8307
vn 0.5146 -0.2135 0.8304
vn -0.5146 -0.2135 0.8304
vn 0.6138 -0.6495 0.4487
vn -0.6138 -0.6495 0.4487
vn 0.5993 -0.6576 0.4565
vn -0.5993 -0.6576 0.4565
vn 0.2563 0.5573 0.7897
vn -0.2563 0.5573 0.7897
vn 0.2528 0.6019 0.7575
vn -0.2528 0.6019 0.7575
vn 0.3453 0.2655 0.9002
vn -0.3453 0.2655 0.9002
vn 0.3472 0.3256 0.8795
vn -0.3472 0.3256 0.8795
vn 0.3924 -0.1289 0.9107
vn -0.3924 -0.1289 0.9107
vn 0.4216 0.0005 0.9068
vn -0.4216 0.0005 0.9068
vn 0.3921 -0.4329 0.8117
vn -0.3921 -0.4329 0.8117
vn 0.4309 -0.3797 0.8186
vn -0.4309 -0.3797 0.8186
vn 0.4496 -0.0439 0.8922
vn -0.4496 -0.0439 0.8922
vn 0.2602 0.0638 0.9635
vn -0.2602 0.0638 0.9635
vn 0.9767 -0.1293 0.1715
vn -0.9767 -0.1293 0.1715
vn 0.9767 -0.1271 0.1729
vn -0.9767 -0.1271 0.1729
vn -0.1152 -0.8683 0.4825
vn 0.1152 -0.8683 0.4825
vn -0.3087 -0.9417 0.1340
vn 0.3087 -0.9417 0.1340
vn 0.2630 -0.7180 0.6444
vn -0.2630 -0.7180 0.6444
vn -0.1951 -0.7553 0.6256
vn 0.1951 -0.7553 0.6256
vn 0.3830 -0.3445 0.8571
vn -0.3830 -0.3445 0.8571
vn 0.2053 -0.6390 0.7413
vn -0.2053 -0.6390 0.7413
vn 0.5570 -0.1440 0.8179
vn -0.5570 -0.1440 0.8179
vn 0.4099 -0.3307 0.8501
vn -0.4099 -0.3307 0.8501
vn 0.7616 -0.1298 0.6349
vn -0.7616 -0.1298 0.6349
vn 0.7033 -0.2214 0.6755
vn -0.7033 -0.2214 0.6755
vn 0.8789 0.0086 0.4769
vn -0.8789 0.0086 0.4769
vn 0.8767 0.0117 0.4809
vn -0.8767 0.0117 0.4809
vn 0.4808 -0.8353 0.2668
vn -0.4808 -0.8353 0.2668
vn 0.4568 -0.8624 0.2179
vn -0.4568 -0.8624 0.2179
vn 0.9076 -0.1277 0.4000
vn -0.9076 -0.1277 0.4000
vn 0.9077 -0.1289 0.3994
vn -0.9077 -0.1289 0.3994
vn 0.2753 -0.1585 0.9482
vn -0.2753 -0.1585 0.9482
vn 0.2680 -0.1528 0.9512
vn -0.2680 -0.1528 0.9512
vn 0.4510 0.0995 0.8869
vn -0.4510 0.0995 0.8869
vn 0.4303 0.0280 0.9023
vn -0.4303 0.0280 0.9023
vn 0.9043 -0.4157 0.0970
vn -0.9043 -0.4157 0.0970
vn 0.9444 -0.2800 0.1723
vn -0.9444 -0.2800 0.1723
vn 0.8612 -0.1764 0.4766
vn -0.8612 -0.1764 0.4766
vn 0.8334 -0.3139 0.4549
vn -0.8334 -0.3139 0.4549
vn 0.1611 -0.8142 0.5578
vn -0.1611 -0.8142 0.5578
vn 0.2515 -0.8516 0.4599
vn -0.2515 -0.8516 0.4599
vn 0.8130 -0.2647 0.5186
vn -0.8130 -0.2647 0.5186
vn 0.5922 -0.5407 0.5975
vn -0.5922 -0.5407 0.5975
vn 0.2712 -0.8044 0.5287
vn -0.2712 -0.8044 0.5287
vn 0.2376 -0.8062 0.5418
vn -0.2376 -0.8062 0.5418
vn 0.2878 -0.6293 0.7219
vn -0.2878 -0.6293 0.7219
vn 0.2851 -0.6190 0.7318
vn -0.2851 -0.6190 0.7318
vn 0.4930 0.0361 0.8693
vn -0.4930 0.0361 0.8693
vn 0.5328 0.0264 0.8458
vn -0.5328 0.0264 0.8458
vn 0.5606 0.0424 0.8270
vn -0.5606 0.0424 0.8270
vn 0.5742 -0.2591 0.7766
vn -0.5742 -0.2591 0.7766
vn 0.3015 -0.1254 0.9452
vn -0.3015 -0.1254 0.9452
vn 0.2594 -0.0854 0.9620
vn -0.2594 -0.0854 0.9620
vn 0.1565 -0.1023 0.9824
vn -0.1565 -0.1023 0.9824
vn 0.0911 0.0192 0.9957
vn -0.0911 0.0192 0.9957
vn 0.1704 -0.0004 0.9854
vn -0.1704 -0.0004 0.9854
vn 0.0949 0.2632 0.9601
vn -0.0949 0.2632 0.9601
vn 0.1111 0.2540 0.9608
vn -0.1111 0.2540 0.9608
vn 0.4490 0.3009 0.8413
vn -0.4490 0.3009 0.8413
vn 0.5684 -0.0876 0.8181
vn -0.5684 -0.0876 0.8181
vn 0.6657 -0.3465 0.6609
vn -0.6657 -0.3465 0.6609
vn 0.2267 -0.4337 0.8721
vn -0.2267 -0.4337 0.8721
vn 0.1846 -0.6726 0.7166
vn -0.1846 -0.6726 0.7166
vn 0.0810 -0.5509 0.8306
vn -0.0810 -0.5509 0.8306
vn -0.0635 -0.4753 0.8775
vn 0.0635 -0.4753 0.8775
vn 0.0699 -0.4667 0.8817
vn -0.0699 -0.4667 0.8817
vn -0.0291 -0.3524 0.9354
vn 0.0291 -0.3524 0.9354
vn 0.2773 -0.3606 0.8905
vn -0.2773 -0.3606 0.8905
vn 0.1923 -0.4145 0.8895
vn -0.1923 -0.4145 0.8895
vn 0.3909 -0.4198 0.8192
vn -0.3909 -0.4198 0.8192
vn 0.4760 -0.3901 0.7882
vn -0.4760 -0.3901 0.7882
vn 0.5340 -0.4696 0.7030
vn -0.5340 -0.4696 0.7030
vn 0.5527 -0.4661 0.6909
vn -0.5527 -0.4661 0.6909
vn 0.5984 -0.7698 0.2222
vn -0.5984 -0.7698 0.2222
vn 0.6267 -0.6937 0.3550
vn -0.6267 -0.6937 0.3550
vn 0.5267 -0.7478 0.4042
vn -0.5267 -0.7478 0.4042
vn 0.5944 -0.7275 0.3427
vn -0.5944 -0.7275 0.3427
vn 0.6002 -0.2066 0.7727
vn -0.6002 -0.2066 0.7727
vn 0.4862 -0.0268 0.8735
vn -0.4862 -0.0268 0.8735
vn 0.8999 -0.1614 0.4052
vn -0.8999 -0.1614 0.4052
vn 0.9000 -0.1684 0.4020
vn -0.9000 -0.1684 0.4020
vn 0.5388 -0.7270 0.4256
vn -0.5388 -0.7270 0.4256
vn 0.5085 -0.7377 0.4441
vn -0.5085 -0.7377 0.4441
vn 0.7899 -0.1768 0.5872
vn -0.7899 -0.1768 0.5872
vn 0.7897 -0.1766 0.5876
vn -0.7897 -0.1766 0.5876
vn 0.4018 0.3548 0.8442
vn -0.4018 0.3548 0.8442
vn 0.5981 0.2835 0.7496
vn -0.5981 0.2835 0.7496
vn 0.6781 0.3956 0.6193
vn -0.6781 0.3956 0.6193
vn 0.7814 0.3714 0.5015
vn -0.7814 0.3714 0.5015
vn 0.8580 0.3293 0.3943
vn -0.8580 0.3293 0.3943
vn 0.7578 0.3376 0.5583
vn -0.7578 0.3376 0.5583
vn 0.8643 0.2646 0.4277
vn -0.8643 0.2646 0.4277
vn 0.8523 0.2992 0.4291
vn -0.8523 0.2992 0.4291
vn 0.8546 0.2501 0.4551
vn -0.8546 0.2501 0.4551
vn 0.8280 0.3183 0.4616
vn -0.8280 0.3183 0.4616
vn 0.8880 0.2780 0.3664
vn -0.8880 0.2780 0.3664
vn 0.8644 0.2655 0.4269
vn -0.8644 0.2655 0.4269
vn 0.8873 0.3125 0.3392
vn -0.8873 0.3125 0.3392
vn 0.8416 0.4188 0.3411
vn -0.8416 0.4188 0.3411
vn 0.9552 -0.2265 0.1908
vn -0.9552 -0.2265 0.1908
vn 0.9614 -0.2144 0.1723
vn -0.9614 -0.2144 0.1723
vn 0.7801 -0.1496 0.6075
vn -0.7801 -0.1496 0.6075
vn 0.7119 -0.1147 0.6929
vn -0.7119 -0.1147 0.6929
vn 0.5699 0.1307 0.8112
vn -0.5699 0.1307 0.8112
vn 0.5191 0.1477 0.8419
vn -0.5191 0.1477 0.8419
vn 0.6130 0.1455 0.7766
vn -0.6130 0.1455 0.7766
vn 0.5703 0.1301 0.8111
vn -0.5703 0.1301 0.8111
vt 0.408772 0.626106
vt 0.410373 0.608920
vt 0.419054 0.612845
vt 0.289712 0.631747
vt 0.280098 0.624400
vt 0.289712 0.619236
vt 0.589660 0.608938
vt 0.591234 0.626106
vt 0.580985 0.612840
vt 0.719902 0.624400
vt 0.710288 0.631747
vt 0.710288 0.619236
vt 0.980531 0.598436
vt 0.941867 0.680924
vt 0.893693 0.600040
vt 0.019469 0.598436
vt 0.106310 0.600044
vt 0.058133 0.680924
vt 0.865595 0.666313
vt 0.134410 0.666317
vt 0.528249 0.349596
vt 0.499977 0.347466
vt 0.527121 0.333802
vt 0.471751 0.349596
vt 0.472879 0.333802
vt 0.500023 0.333766
vt 0.631101 0.552846
vt 0.633505 0.573912
vt 0.600862 0.567527
vt 0.368756 0.552793
vt 0.398964 0.567345
vt 0.366427 0.573884
vt 0.603876 0.583413
vt 0.396012 0.583304
vt 0.560215 0.342771
vt 0.439785 0.342771
vt 0.553172 0.331473
vt 0.446828 0.331473
vt 0.573500 0.580000
vt 0.572156 0.562348
vt 0.426243 0.579569
vt 0.427685 0.562039
vt 0.598631 0.545021
vt 0.401223 0.544828
vt 0.579658 0.590055
vt 0.420121 0.589772
vt 0.635536 0.810751
vt 0.709250 0.798492
vt 0.668509 0.880086
vt 0.364501 0.810886
vt 0.331431 0.880286
vt 0.290777 0.798554
vt 0.757824 0.852324
vt 0.242176 0.852324
vt 0.499877 0.091010
vt 0.499977 0.045547
vt 0.559100 0.097368
vt 0.440512 0.097581
vt 0.568013 0.055435
vt 0.430987 0.055935
vt 0.606793 0.604463
vt 0.611335 0.637716
vt 0.393207 0.604463
vt 0.388665 0.637716
vt 0.723087 0.467946
vt 0.713757 0.532373
vt 0.665586 0.504049
vt 0.276896 0.467943
vt 0.334562 0.503927
vt 0.286267 0.532325
vt 0.667113 0.539327
vt 0.332828 0.539288
vt 0.585384 0.333459
vt 0.414617 0.333459
vt 0.577238 0.326110
vt 0.422762 0.326110
vt 0.499987 0.730081
vt 0.558266 0.738328
vt 0.500023 0.809424
vt 0.441728 0.738324
vt 0.570304 0.812129
vt 0.429765 0.812166
vt 0.551868 0.463430
vt 0.570338 0.451425
vt 0.560611 0.480983
vt 0.448340 0.463064
vt 0.439121 0.481042
vt 0.429819 0.451385
vt 0.578632 0.466377
vt 0.421352 0.466259
vt 0.602918 0.157137
vt 0.645735 0.187360
vt 0.588371 0.195559
vt 0.396889 0.157245
vt 0.411362 0.195673
vt 0.354128 0.187447
vt 0.625560 0.219688
vt 0.374293 0.219815
vt 0.599262 0.318931
vt 0.400738 0.318931
vt 0.607600 0.322297
vt 0.392400 0.322297
vt 0.571228 0.317308
vt 0.568842 0.307634
vt 0.593203 0.314324
vt 0.428771 0.317309
vt 0.406787 0.314327
vt 0.431158 0.307634
vt 0.586614 0.307634
vt 0.413386 0.307634
vt 0.609945 0.360090
vt 0.631938 0.336500
vt 0.390095 0.360427
vt 0.367856 0.336081
vt 0.702114 0.566837
vt 0.297879 0.566824
vt 0.666525 0.566134
vt 0.333434 0.566122
vt 0.720122 0.285333
vt 0.675343 0.296022
vt 0.685945 0.224643
vt 0.279777 0.285342
vt 0.313951 0.224692
vt 0.324548 0.296007
vt 0.655317 0.254485
vt 0.344549 0.254561
vt 0.534090 0.220859
vt 0.527671 0.263774
vt 0.499968 0.218629
vt 0.465828 0.220810
vt 0.472329 0.263774
vt 0.499977 0.262981
vt 0.596961 0.293460
vt 0.603900 0.289783
vt 0.611897 0.306039
vt 0.403039 0.293460
vt 0.388103 0.306039
vt 0.396100 0.289783
vt 0.618026 0.305289
vt 0.381974 0.305289
vt 0.680678 0.652735
vt 0.681215 0.641660
vt 0.702097 0.646409
vt 0.319322 0.652735
vt 0.297903 0.646409
vt 0.318785 0.641660
vt 0.698585 0.636844
vt 0.301415 0.636844
vt 0.607610 0.646112
vt 0.583841 0.631286
vt 0.392390 0.646112
vt 0.416164 0.631286
vt 0.569944 0.232965
vt 0.430012 0.233191
vt 0.600409 0.250995
vt 0.399510 0.251079
vt 0.816351 0.259740
vt 0.771915 0.316422
vt 0.760966 0.220247
vt 0.183610 0.259743
vt 0.238979 0.220255
vt 0.228018 0.316428
vt 0.584177 0.375893
vt 0.621009 0.425982
vt 0.577268 0.414065
vt 0.415838 0.375804
vt 0.422729 0.414015
vt 0.378909 0.425990
vt 0.602995 0.451312
vt 0.396993 0.451203
vt 0.770092 0.767979
vt 0.826722 0.721245
vt 0.830705 0.806186
vt 0.229924 0.767997
vt 0.169295 0.806186
vt 0.173287 0.721252
vt 0.895093 0.745859
vt 0.104907 0.745859
vt 0.500151 0.472844
vt 0.515097 0.472748
vt 0.499910 0.501747
vt 0.485301 0.472605
vt 0.516446 0.500361
vt 0.483370 0.500413
vt 0.688880 0.590540
vt 0.681215 0.603765
vt 0.661242 0.586975
vt 0.311120 0.590540
vt 0.338758 0.586975
vt 0.318785 0.603765
vt 0.656636 0.599403
vt 0.343364 0.599403
vt 0.576838 0.288154
vt 0.581691 0.279937
vt 0.423162 0.288154
vt 0.418309 0.279937
vt 0.680198 0.429281
vt 0.752033 0.398685
vt 0.247923 0.398667
vt 0.319688 0.429262
vt 0.704663 0.378470
vt 0.295284 0.378419
vt 0.543283 0.180745
vt 0.499913 0.178271
vt 0.456549 0.180799
vt 0.555168 0.269206
vt 0.444832 0.269206
vt 0.552888 0.284192
vt 0.447112 0.284192
vt 0.499977 0.280615
vt 0.526913 0.282143
vt 0.473087 0.282143
vt 0.643998 0.465512
vt 0.642764 0.395662
vt 0.357155 0.395730
vt 0.355808 0.465594
vt 0.614074 0.116754
vt 0.624563 0.075808
vt 0.385764 0.116846
vt 0.375437 0.075808
vt 0.531597 0.647517
vt 0.549756 0.600249
vt 0.563544 0.640172
vt 0.468268 0.647329
vt 0.436392 0.640113
vt 0.450067 0.599566
vt 0.560698 0.604668
vt 0.438999 0.603505
vt 0.654766 0.655989
vt 0.629906 0.653924
vt 0.656636 0.644643
vt 0.345234 0.655989
vt 0.343364 0.644643
vt 0.370094 0.653924
vt 0.634038 0.644029
vt 0.365962 0.644029
vt 0.723330 0.636627
vt 0.276670 0.636627
vt 0.517862 0.528052
vt 0.541366 0.521101
vt 0.520797 0.557435
vt 0.482113 0.528021
vt 0.479154 0.557346
vt 0.458639 0.520911
vt 0.544341 0.548416
vt 0.455607 0.548199
vt 0.552386 0.697432
vt 0.499955 0.687602
vt 0.447580 0.697390
vt 0.499923 0.648476
vt 0.781070 0.564595
vt 0.752212 0.589195
vt 0.752702 0.542818
vt 0.218937 0.564589
vt 0.247308 0.542806
vt 0.247792 0.589190
vt 0.732392 0.575453
vt 0.267612 0.575440
vt 0.585271 0.664823
vt 0.414712 0.664780
vt 0.566036 0.417671
vt 0.531915 0.398463
vt 0.468080 0.398465
vt 0.433991 0.417638
vt 0.536915 0.406214
vt 0.463080 0.406216
vt 0.595293 0.514976
vt 0.627543 0.526648
vt 0.372120 0.526586
vt 0.404670 0.514867
vt 0.617942 0.491684
vt 0.382385 0.491427
vt 0.539958 0.442861
vt 0.554318 0.433923
vt 0.544562 0.451624
vt 0.460042 0.442861
vt 0.455528 0.451377
vt 0.445682 0.433923
vt 0.562759 0.441215
vt 0.437114 0.441104
vt 0.606630 0.596295
vt 0.393362 0.596294
vt 0.587247 0.601068
vt 0.412782 0.601030
vt 0.567985 0.506521
vt 0.432112 0.506411
vt 0.589072 0.491363
vt 0.410986 0.491277
vt 0.801779 0.168062
vt 0.733752 0.130299
vt 0.198221 0.168062
vt 0.266248 0.130299
vt 0.711218 0.180025
vt 0.288719 0.180054
vt 0.570082 0.533674
vt 0.429884 0.533478
vt 0.655896 0.679837
vt 0.687132 0.677654
vt 0.662801 0.717082
vt 0.344108 0.679849
vt 0.337212 0.717117
vt 0.312876 0.677668
vt 0.703624 0.706729
vt 0.296392 0.706757
vt 0.537728 0.494615
vt 0.462783 0.494253
vt 0.531987 0.469860
vt 0.467288 0.470075
vt 0.664630 0.147129
vt 0.335279 0.147180
vt 0.588166 0.890956
vt 0.412198 0.891099
vt 0.624852 0.271901
vt 0.374971 0.272195
vt 0.733530 0.623023
vt 0.742870 0.644554
vt 0.257135 0.644560
vt 0.266470 0.623023
vt 0.758757 0.617213
vt 0.241246 0.617214
vt 0.672684 0.743419
vt 0.327338 0.743473
vt 0.722943 0.728037
vt 0.277076 0.728068
vt 0.526227 0.426090
vt 0.523913 0.436170
vt 0.517472 0.422123
vt 0.473773 0.426090
vt 0.482483 0.422151
vt 0.476088 0.436170
vt 0.516311 0.436946
vt 0.483518 0.437016
vt 0.742247 0.685493
vt 0.771046 0.651041
vt 0.770391 0.700444
vt 0.257765 0.685510
vt 0.229622 0.700459
vt 0.228962 0.651049
vt 0.805016 0.657892
vt 0.194993 0.657898
vt 0.590372 0.298177
vt 0.607591 0.305797
vt 0.586800 0.304600
vt 0.409626 0.298177
vt 0.413200 0.304600
vt 0.392389 0.305797
vt 0.596371 0.306047
vt 0.403629 0.306047
vt 0.897013 0.531231
vt 0.821442 0.542444
vt 0.102986 0.531237
vt 0.178560 0.542446
vt 0.825608 0.602325
vt 0.174399 0.602329
vt 0.810748 0.476074
vt 0.189241 0.476076
vt 0.500026 0.452513
vt 0.499816 0.437019
vt 0.513050 0.452718
vt 0.486717 0.452371
vt 0.509127 0.437282
vt 0.490726 0.437599
vt 0.663187 0.355403
vt 0.336768 0.355267
vt 0.633830 0.601178
vt 0.634070 0.590424
vt 0.366170 0.601178
vt 0.365930 0.590424
vt 0.534154 0.379360
vt 0.465844 0.379359
vt 0.499886 0.133083
vt 0.552012 0.137408
vt 0.447750 0.137523
vt 0.645429 0.303293
vt 0.354490 0.303216
vt 0.542902 0.415208
vt 0.457098 0.415208
vt 0.790082 0.608646
vt 0.209925 0.608647
vt 0.716482 0.666799
vt 0.283526 0.666810
vt 0.892441 0.459239
vt 0.107550 0.459245
vt 0.525850 0.319809
vt 0.474155 0.319808
vt 0.549626 0.319139
vt 0.450374 0.319139
vt 0.577414 0.436833
vt 0.422552 0.436767
vt 0.567192 0.430580
vt 0.432949 0.430482
vt 0.588354 0.453138
vt 0.411671 0.453035
vt 0.681008 0.101715
vt 0.318993 0.101715
vt 0.616907 0.744114
vt 0.383103 0.744160
vt 0.523481 0.594373
vt 0.476410 0.594194
vt 0.499523 0.598938
vt 0.812086 0.411461
vt 0.187885 0.411462
vt 0.573521 0.296460
vt 0.426479 0.296460
vt 0.614083 0.718613
vt 0.385919 0.718636
vt 0.551980 0.295368
vt 0.448020 0.295368
vt 0.986046 0.439966
vt 0.992440 0.519223
vt 0.013954 0.439966
vt 0.007561 0.519223
vt 0.499977 0.294066
vt 0.526878 0.295374
vt 0.473122 0.295374
vt 0.499977 0.304722
vt 0.526967 0.304722
vt 0.473033 0.304722
vt 0.551338 0.304722
vt 0.572058 0.304722
vt 0.448662 0.304722
vt 0.427942 0.304722
vt 0.499974 0.560363
vt 0.871706 0.208059
vt 0.128294 0.208059
vt 0.932695 0.269895
vt 0.866152 0.317295
vt 0.067305 0.269895
vt 0.133823 0.317299
vt 0.547818 0.307634
vt 0.452182 0.307634
vt 0.499989 0.530175
vt 0.524613 0.307634
vt 0.475387 0.307634
vt 0.711045 0.601048
vt 0.288955 0.601048
vt 0.698585 0.612551
vt 0.301415 0.612551
vt 0.500023 0.892950
vt 0.622953 0.677221
vt 0.377046 0.677222
vt 0.499914 0.419853
vt 0.508953 0.420562
vt 0.490967 0.420622
vt 0.725342 0.610869
vt 0.274658 0.610869
vt 0.526564 0.453882
vt 0.473466 0.454256
vt 0.547226 0.579605
vt 0.452770 0.579150
vt 0.499988 0.381566
vt 0.499974 0.397628
vt 0.500016 0.320776
vt 0.500023 0.307652
vt 0.573595 0.610193
vt 0.426450 0.610201
vt 0.531529 0.444943
vt 0.468472 0.444943
vt 0.885770 0.384971
vt 0.114210 0.384978
vt 0.967686 0.355643
vt 0.032314 0.355643
vt 0.810858 0.353695
vt 0.189096 0.353700
vt 0.557261 0.427174
vt 0.442739 0.427174
vt 0.554692 0.419934
vt 0.445308 0.419934
s 0
usemtl Material
f 174/1/1 156/2/1 134/3/1
f 247/4/2 34/5/2 8/6/2
f 383/7/3 399/8/3 363/9/3
f 264/10/4 467/11/4 250/12/4
f 357/13/5 390/14/5 265/15/5
f 128/16/6 35/17/6 163/18/6
f 369/19/7 265/15/7 390/14/7
f 140/20/8 163/18/8 35/17/8
f 268/21/9 1/22/9 303/23/9
f 38/24/10 73/25/10 1/22/10
f 12/26/11 303/23/11 1/22/11
f 12/26/12 1/22/12 73/25/12
f 350/27/13 452/28/13 351/29/13
f 121/30/14 122/31/14 232/32/14
f 453/33/15 351/29/15 452/28/15
f 233/34/16 232/32/16 122/31/16
f 268/21/17 303/23/17 270/35/17
f 38/24/18 40/36/18 73/25/18
f 304/37/19 270/35/19 303/23/19
f 74/38/20 73/25/20 40/36/20
f 358/39/21 344/40/21 351/29/21
f 129/41/22 122/31/22 115/42/22
f 278/43/23 351/29/23 344/40/23
f 48/44/24 115/42/24 122/31/24
f 351/29/25 453/33/25 358/39/25
f 122/31/26 129/41/26 233/34/26
f 454/45/27 358/39/27 453/33/27
f 234/46/28 233/34/28 129/41/28
f 300/47/29 334/48/29 298/49/29
f 70/50/30 68/51/30 105/52/30
f 333/53/31 298/49/31 334/48/31
f 104/54/32 105/52/32 68/51/32
f 176/55/33 153/56/33 397/57/33
f 176/55/34 172/58/34 153/56/34
f 378/59/35 397/57/35 153/56/35
f 149/60/36 153/56/36 172/58/36
f 382/61/37 385/62/37 383/7/37
f 155/63/38 156/2/38 158/64/38
f 399/8/39 383/7/39 385/62/39
f 174/1/40 158/64/40 156/2/40
f 281/65/41 348/66/41 331/67/41
f 51/68/42 102/69/42 119/70/42
f 349/71/43 331/67/43 348/66/43
f 120/72/44 119/70/44 102/69/44
f 270/35/45 304/37/45 271/73/45
f 40/36/46 41/74/46 74/38/46
f 305/75/47 271/73/47 304/37/47
f 75/76/48 74/38/48 41/74/48
f 10/77/49 337/78/49 152/79/49
f 10/77/50 152/79/50 108/80/50
f 338/81/51 152/79/51 337/78/51
f 109/82/52 108/80/52 152/79/52
f 345/83/53 279/84/53 361/85/53
f 116/86/54 132/87/54 49/88/54
f 280/89/55 361/85/55 279/84/55
f 50/90/56 49/88/56 132/87/56
f 263/91/57 432/92/57 419/93/57
f 33/94/58 195/95/58 212/96/58
f 425/97/59 419/93/59 432/92/59
f 205/98/60 212/96/60 195/95/60
f 305/75/61 409/99/61 271/73/61
f 75/76/62 41/74/62 185/100/62
f 410/101/63 271/73/63 409/99/63
f 186/102/64 185/100/64 41/74/64
f 273/103/65 311/104/65 408/105/65
f 43/106/66 184/107/66 81/108/66
f 416/109/67 408/105/67 311/104/67
f 192/110/68 81/108/68 184/107/68
f 323/111/69 271/73/69 411/112/69
f 93/113/70 187/114/70 41/74/70
f 410/101/71 411/112/71 271/73/71
f 186/102/72 41/74/72 187/114/72
f 348/66/73 450/115/73 349/71/73
f 119/70/74 120/72/74 230/116/74
f 451/117/75 349/71/75 450/115/75
f 231/118/76 230/116/76 120/72/76
f 435/119/77 433/120/77 431/121/77
f 215/122/78 211/123/78 213/124/78
f 423/125/79 431/121/79 433/120/79
f 203/126/80 213/124/80 211/123/80
f 314/127/81 315/128/81 19/129/81
f 84/130/82 19/129/82 85/131/82
f 18/132/83 19/129/83 315/128/83
f 18/132/84 85/131/84 19/129/84
f 308/133/85 376/134/85 307/135/85
f 78/136/86 77/137/86 147/138/86
f 292/139/87 307/135/87 376/134/87
f 62/140/88 147/138/88 77/137/88
f 260/141/89 388/142/89 261/143/89
f 30/144/90 31/145/90 161/146/90
f 389/147/91 261/143/91 388/142/91
f 162/148/92 161/146/92 31/145/92
f 287/149/93 415/150/93 385/62/93
f 57/151/94 158/64/94 191/152/94
f 399/8/95 385/62/95 415/150/95
f 174/1/96 191/152/96 158/64/96
f 419/93/97 425/97/97 407/153/97
f 195/95/98 183/154/98 205/98/98
f 336/155/99 407/153/99 425/97/99
f 107/156/100 205/98/100 183/154/100
f 368/157/101 417/158/101 365/159/101
f 139/160/102 136/161/102 193/162/102
f 435/119/103 365/159/103 417/158/103
f 215/122/104 193/162/104 136/161/104
f 392/163/105 424/164/105 328/165/105
f 166/166/106 99/167/106 204/168/106
f 359/169/107 328/165/107 424/164/107
f 130/170/108 204/168/108 99/167/108
f 299/171/109 302/172/109 285/173/109
f 69/174/110 55/175/110 72/176/110
f 252/177/111 285/173/111 302/172/111
f 22/178/112 72/176/112 55/175/112
f 5/179/113 276/180/113 6/181/113
f 5/179/114 6/181/114 46/182/114
f 282/183/115 6/181/115 276/180/115
f 52/184/116 46/182/116 6/181/116
f 255/185/117 374/186/117 254/187/117
f 25/188/118 24/189/118 145/190/118
f 375/191/119 254/187/119 374/186/119
f 146/192/120 145/190/120 24/189/120
f 321/193/121 322/194/121 308/133/121
f 91/195/122 78/136/122 92/196/122
f 376/134/123 308/133/123 322/194/123
f 147/138/124 92/196/124 78/136/124
f 281/65/125 426/197/125 412/198/125
f 51/68/126 188/199/126 206/200/126
f 428/201/127 412/198/127 426/197/127
f 208/202/128 206/200/128 188/199/128
f 422/203/129 314/127/129 201/204/129
f 202/205/130 201/204/130 84/130/130
f 19/129/131 201/204/131 314/127/131
f 19/129/132 84/130/132 201/204/132
f 336/155/133 322/194/133 407/153/133
f 107/156/134 183/154/134 92/196/134
f 406/206/135 407/153/135 322/194/135
f 182/207/136 92/196/136 183/154/136
f 406/206/137 322/194/137 405/208/137
f 182/207/138 181/209/138 92/196/138
f 321/193/139 405/208/139 322/194/139
f 91/195/140 92/196/140 181/209/140
f 18/132/141 315/128/141 17/210/141
f 18/132/142 17/210/142 85/131/142
f 316/211/143 17/210/143 315/128/143
f 86/212/144 85/131/144 17/210/144
f 426/197/145 267/213/145 427/214/145
f 206/200/146 207/215/146 37/216/146
f 424/164/147 427/214/147 267/213/147
f 204/168/148 37/216/148 207/215/148
f 370/217/149 397/57/149 401/218/149
f 141/219/150 177/220/150 172/58/150
f 378/59/151 401/218/151 397/57/151
f 149/60/152 172/58/152 177/220/152
f 392/163/153 270/35/153 323/111/153
f 166/166/154 93/113/154 40/36/154
f 271/73/155 323/111/155 270/35/155
f 41/74/156 40/36/156 93/113/156
f 418/221/157 466/222/157 414/223/157
f 194/224/158 190/225/158 246/226/158
f 465/227/159 414/223/159 466/222/159
f 245/228/160 246/226/160 190/225/160
f 258/229/161 259/230/161 387/231/161
f 28/232/162 160/233/162 29/234/162
f 386/235/163 387/231/163 259/230/163
f 159/236/164 29/234/164 160/233/164
f 261/143/165 389/147/165 468/237/165
f 31/145/166 248/238/166 162/148/166
f 467/11/167 468/237/167 389/147/167
f 247/4/168 162/148/168 248/238/168
f 249/239/169 457/240/169 420/241/169
f 4/242/170 197/243/170 237/244/170
f 400/245/171 420/241/171 457/240/171
f 175/246/172 237/244/172 197/243/172
f 334/48/173 299/171/173 333/53/173
f 105/52/174 104/54/174 69/174/174
f 285/173/175 333/53/175 299/171/175
f 55/175/176 69/174/176 104/54/176
f 286/247/177 9/248/177 418/221/177
f 56/249/178 194/224/178 9/248/178
f 169/250/179 418/221/179 9/248/179
f 169/250/180 9/248/180 194/224/180
f 341/251/181 262/252/181 347/253/181
f 112/254/182 118/255/182 32/256/182
f 449/257/183 347/253/183 262/252/183
f 229/258/184 32/256/184 118/255/184
f 286/247/185 418/221/185 442/259/185
f 56/249/186 222/260/186 194/224/186
f 414/223/187 442/259/187 418/221/187
f 190/225/188 194/224/188 222/260/188
f 328/165/189 461/261/189 327/262/189
f 99/167/190 98/263/190 241/264/190
f 329/265/191 327/262/191 461/261/191
f 100/266/192 241/264/192 98/263/192
f 278/43/193 356/267/193 330/268/193
f 48/44/194 101/269/194 127/270/194
f 372/271/195 330/268/195 356/267/195
f 143/272/196 127/270/196 101/269/196
f 310/273/197 393/274/197 439/275/197
f 80/276/198 219/277/198 167/278/198
f 440/279/199 439/275/199 393/274/199
f 220/280/200 167/278/200 219/277/200
f 382/61/201 383/7/201 257/281/201
f 155/63/202 27/282/202 156/2/202
f 342/283/203 257/281/203 383/7/203
f 113/284/204 156/2/204 27/282/204
f 361/85/205 280/89/205 421/285/205
f 132/87/206 199/286/206 50/90/206
f 430/287/207 421/285/207 280/89/207
f 210/288/208 50/90/208 199/286/208
f 366/289/209 365/159/209 380/290/209
f 137/291/210 151/292/210 136/161/210
f 395/293/211 380/290/211 365/159/211
f 170/294/212 136/161/212 151/292/212
f 356/267/213 278/43/213 438/295/213
f 127/270/214 218/296/214 48/44/214
f 344/40/215 438/295/215 278/43/215
f 115/42/216 48/44/216 218/296/216
f 444/297/217 445/298/217 283/299/217
f 224/300/218 53/301/218 225/302/218
f 284/303/219 283/299/219 445/298/219
f 54/304/220 225/302/220 53/301/220
f 282/183/221 276/180/221 364/305/221
f 52/184/222 135/306/222 46/182/222
f 441/307/223 364/305/223 276/180/223
f 221/308/224 46/182/224 135/306/224
f 432/92/225 263/91/225 396/309/225
f 212/96/226 171/310/226 33/94/226
f 370/217/227 396/309/227 263/91/227
f 141/219/228 33/94/228 171/310/228
f 338/81/229 300/47/229 339/311/229
f 109/82/230 110/312/230 70/50/230
f 298/49/231 339/311/231 300/47/231
f 68/51/232 70/50/232 110/312/232
f 336/155/233 274/313/233 322/194/233
f 107/156/234 92/196/234 44/314/234
f 376/134/235 322/194/235 274/313/235
f 147/138/236 44/314/236 92/196/236
f 349/71/237 451/117/237 350/27/237
f 120/72/238 121/30/238 231/118/238
f 452/28/239 350/27/239 451/117/239
f 232/32/240 231/118/240 121/30/240
f 468/237/241 360/315/241 343/316/241
f 248/238/242 114/317/242 131/318/242
f 447/319/243 343/316/243 360/315/243
f 227/320/244 131/318/244 114/317/244
f 283/299/245 284/303/245 335/321/245
f 53/301/246 106/322/246 54/304/246
f 294/323/247 335/321/247 284/303/247
f 64/324/248 54/304/248 106/322/248
f 251/325/249 459/326/249 463/327/249
f 21/328/250 243/329/250 239/330/250
f 462/331/251 463/327/251 459/326/251
f 242/332/252 239/330/252 243/329/252
f 277/333/253 354/334/253 301/335/253
f 47/336/254 71/337/254 125/338/254
f 384/339/255 301/335/255 354/334/255
f 157/340/256 125/338/256 71/337/256
f 326/341/257 293/342/257 325/343/257
f 97/344/258 96/345/258 63/346/258
f 309/347/259 325/343/259 293/342/259
f 79/348/260 63/346/260 96/345/260
f 284/303/261 277/333/261 294/323/261
f 54/304/262 64/324/262 47/336/262
f 301/335/263 294/323/263 277/333/263
f 71/337/264 47/336/264 64/324/264
f 448/349/265 265/15/265 346/350/265
f 228/351/266 117/352/266 35/17/266
f 373/353/267 346/350/267 265/15/267
f 144/354/268 35/17/268 117/352/268
f 353/355/269 346/350/269 347/253/269
f 124/356/270 118/255/270 117/352/270
f 341/251/271 347/253/271 346/350/271
f 112/254/272 117/352/272 118/255/272
f 2/357/273 20/358/273 275/359/273
f 2/357/274 45/360/274 20/358/274
f 355/361/275 275/359/275 20/358/275
f 126/362/276 20/358/276 45/360/276
f 249/239/277 282/183/277 457/240/277
f 4/242/278 237/244/278 52/184/278
f 364/305/279 457/240/279 282/183/279
f 135/306/280 52/184/280 237/244/280
f 426/197/281 427/214/281 428/201/281
f 206/200/282 208/202/282 207/215/282
f 437/363/283 428/201/283 427/214/283
f 217/364/284 207/215/284 208/202/284
f 381/365/285 382/61/285 253/366/285
f 154/367/286 23/368/286 155/63/286
f 257/281/287 253/366/287 382/61/287
f 27/282/288 155/63/288 23/368/288
f 392/163/289 394/369/289 270/35/289
f 166/166/290 40/36/290 168/370/290
f 268/21/291 270/35/291 394/369/291
f 38/24/292 168/370/292 40/36/292
f 200/371/293 429/372/293 201/204/293
f 200/371/294 201/204/294 209/373/294
f 422/203/295 201/204/295 429/372/295
f 202/205/296 209/373/296 201/204/296
f 331/67/297 330/268/297 267/213/297
f 102/69/298 37/216/298 101/269/298
f 372/271/299 267/213/299 330/268/299
f 143/272/300 101/269/300 37/216/300
f 423/125/301 433/120/301 274/313/301
f 203/126/302 44/314/302 213/124/302
f 288/374/303 274/313/303 433/120/303
f 58/375/304 213/124/304 44/314/304
f 291/376/305 251/325/305 329/265/305
f 61/377/306 100/266/306 21/328/306
f 463/327/307 329/265/307 251/325/307
f 243/329/308 21/328/308 100/266/308
f 259/230/309 287/149/309 386/235/309
f 29/234/310 159/236/310 57/151/310
f 385/62/311 386/235/311 287/149/311
f 158/64/312 57/151/312 159/236/312
f 343/316/313 447/319/313 354/334/313
f 114/317/314 125/338/314 227/320/314
f 266/378/315 354/334/315 447/319/315
f 36/379/316 227/320/316 125/338/316
f 258/229/317 387/231/317 260/141/317
f 28/232/318 30/144/318 160/233/318
f 388/142/319 260/141/319 387/231/319
f 161/146/320 160/233/320 30/144/320
f 431/121/321 423/125/321 432/92/321
f 211/123/322 212/96/322 203/126/322
f 425/97/323 432/92/323 423/125/323
f 205/98/324 203/126/324 212/96/324
f 446/380/325 343/316/325 277/333/325
f 226/381/326 47/336/326 114/317/326
f 354/334/327 277/333/327 343/316/327
f 125/338/328 114/317/328 47/336/328
f 425/97/329 423/125/329 336/155/329
f 205/98/330 107/156/330 203/126/330
f 274/313/331 336/155/331 423/125/331
f 44/314/332 203/126/332 107/156/332
f 307/135/333 293/342/333 308/133/333
f 77/137/334 78/136/334 63/346/334
f 326/341/335 308/133/335 293/342/335
f 97/344/336 63/346/336 78/136/336
f 367/382/337 448/349/337 353/355/337
f 138/383/338 124/356/338 228/351/338
f 346/350/339 353/355/339 448/349/339
f 117/352/340 228/351/340 124/356/340
f 303/23/341 269/384/341 304/37/341
f 73/25/342 74/38/342 39/385/342
f 272/386/343 304/37/343 269/384/343
f 42/387/344 39/385/344 74/38/344
f 372/271/345 359/169/345 267/213/345
f 143/272/346 37/216/346 130/170/346
f 424/164/347 267/213/347 359/169/347
f 204/168/348 130/170/348 37/216/348
f 328/165/349 295/388/349 461/261/349
f 99/167/350 241/264/350 65/389/350
f 456/390/351 461/261/351 295/388/351
f 236/391/352 65/389/352 241/264/352
f 295/388/353 332/392/353 279/84/353
f 65/389/354 49/88/354 103/393/354
f 280/89/355 279/84/355 332/392/355
f 50/90/356 103/393/356 49/88/356
f 304/37/357 272/386/357 305/75/357
f 74/38/358 75/76/358 42/387/358
f 273/103/359 305/75/359 272/386/359
f 43/106/360 42/387/360 75/76/360
f 428/201/361 437/363/361 435/119/361
f 208/202/362 215/122/362 217/364/362
f 433/120/363 435/119/363 437/363/363
f 213/124/364 217/364/364 215/122/364
f 305/75/365 273/103/365 409/99/365
f 75/76/366 185/100/366 43/106/366
f 408/105/367 409/99/367 273/103/367
f 184/107/368 43/106/368 185/100/368
f 395/293/369 431/121/369 396/309/369
f 170/294/370 171/310/370 211/123/370
f 432/92/371 396/309/371 431/121/371
f 212/96/372 211/123/372 171/310/372
f 396/309/373 370/217/373 379/394/373
f 171/310/374 150/395/374 141/219/374
f 401/218/375 379/394/375 370/217/375
f 177/220/376 141/219/376 150/395/376
f 297/396/377 335/321/377 300/47/377
f 67/397/378 70/50/378 106/322/378
f 334/48/379 300/47/379 335/321/379
f 105/52/380 106/322/380 70/50/380
f 418/221/381 169/250/381 352/398/381
f 194/224/382 123/399/382 169/250/382
f 7/400/383 352/398/383 169/250/383
f 7/400/384 169/250/384 123/399/384
f 281/65/385 412/198/385 353/355/385
f 51/68/386 124/356/386 188/199/386
f 377/401/387 353/355/387 412/198/387
f 148/402/388 188/199/388 124/356/388
f 320/403/389 321/193/389 326/341/389
f 90/404/390 97/344/390 91/195/390
f 308/133/391 326/341/391 321/193/391
f 78/136/392 91/195/392 97/344/392
f 286/247/393 296/405/393 337/78/393
f 56/249/394 108/80/394 66/406/394
f 297/396/395 337/78/395 296/405/395
f 67/397/396 66/406/396 108/80/396
f 405/208/397 321/193/397 404/407/397
f 181/209/398 180/408/398 91/195/398
f 320/403/399 404/407/399 321/193/399
f 90/404/400 91/195/400 180/408/400
f 331/67/401 349/71/401 330/268/401
f 102/69/402 101/269/402 120/72/402
f 350/27/403 330/268/403 349/71/403
f 121/30/404 120/72/404 101/269/404
f 335/321/405 294/323/405 334/48/405
f 106/322/406 105/52/406 64/324/406
f 299/171/407 334/48/407 294/323/407
f 69/174/408 64/324/408 105/52/408
f 324/409/409 455/410/409 367/382/409
f 94/411/410 138/383/410 235/412/410
f 448/349/411 367/382/411 455/410/411
f 228/351/412 235/412/412 138/383/412
f 17/210/413 316/211/413 16/413/413
f 17/210/414 16/413/414 86/212/414
f 317/414/415 16/413/415 316/211/415
f 87/415/416 86/212/416 16/413/416
f 430/287/417 280/89/417 359/169/417
f 210/288/418 130/170/418 50/90/418
f 332/392/419 359/169/419 280/89/419
f 103/393/420 50/90/420 130/170/420
f 16/413/421 317/414/421 15/416/421
f 16/413/422 15/416/422 87/415/422
f 318/417/423 15/416/423 317/414/423
f 88/418/424 87/415/424 15/416/424
f 9/248/425 286/247/425 10/77/425
f 9/248/426 10/77/426 56/249/426
f 337/78/427 10/77/427 286/247/427
f 108/80/428 56/249/428 10/77/428
f 330/268/429 350/27/429 278/43/429
f 101/269/430 48/44/430 121/30/430
f 351/29/431 278/43/431 350/27/431
f 122/31/432 121/30/432 48/44/432
f 253/366/433 254/187/433 381/365/433
f 23/368/434 154/367/434 24/189/434
f 375/191/435 381/365/435 254/187/435
f 146/192/436 24/189/436 154/367/436
f 403/419/437 404/407/437 319/420/437
f 179/421/438 89/422/438 180/408/438
f 320/403/439 319/420/439 404/407/439
f 90/404/440 180/408/440 89/422/440
f 352/398/441 7/400/441 420/241/441
f 123/399/442 197/243/442 7/400/442
f 198/423/443 420/241/443 7/400/443
f 198/423/444 7/400/444 197/243/444
f 325/343/445 319/420/445 326/341/445
f 96/345/446 97/344/446 89/422/446
f 320/403/447 326/341/447 319/420/447
f 90/404/448 89/422/448 97/344/448
f 398/424/449 368/157/449 366/289/449
f 173/425/450 137/291/450 139/160/450
f 365/159/451 366/289/451 368/157/451
f 136/161/452 139/160/452 137/291/452
f 289/426/453 436/427/453 398/424/453
f 59/428/454 173/425/454 216/429/454
f 368/157/455 398/424/455 436/427/455
f 139/160/456 216/429/456 173/425/456
f 439/275/457 440/279/457 345/83/457
f 219/277/458 116/86/458 220/280/458
f 279/84/459 345/83/459 440/279/459
f 49/88/460 220/280/460 116/86/460
f 272/386/461 312/430/461 273/103/461
f 42/387/462 43/106/462 82/431/462
f 311/104/463 273/103/463 312/430/463
f 81/108/464 82/431/464 43/106/464
f 6/181/465 282/183/465 196/432/465
f 6/181/466 196/432/466 52/184/466
f 249/239/467 196/432/467 282/183/467
f 4/242/468 52/184/468 196/432/468
f 274/313/469 288/374/469 376/134/469
f 44/314/470 147/138/470 58/375/470
f 292/139/471 376/134/471 288/374/471
f 62/140/472 58/375/472 147/138/472
f 397/57/473 429/372/473 176/55/473
f 172/58/474 176/55/474 209/373/474
f 200/371/475 176/55/475 429/372/475
f 200/371/476 209/373/476 176/55/476
f 269/384/477 313/433/477 272/386/477
f 39/385/478 42/387/478 83/434/478
f 312/430/479 272/386/479 313/433/479
f 82/431/480 83/434/480 42/387/480
f 445/298/481 446/380/481 284/303/481
f 225/302/482 54/304/482 226/381/482
f 277/333/483 284/303/483 446/380/483
f 47/336/484 226/381/484 54/304/484
f 255/185/485 340/435/485 374/186/485
f 25/188/486 145/190/486 111/436/486
f 391/437/487 374/186/487 340/435/487
f 164/438/488 111/436/488 145/190/488
f 296/405/489 283/299/489 297/396/489
f 66/406/490 67/397/490 53/301/490
f 335/321/491 297/396/491 283/299/491
f 106/322/492 53/301/492 67/397/492
f 347/253/493 449/257/493 348/66/493
f 118/255/494 119/70/494 229/258/494
f 450/115/495 348/66/495 449/257/495
f 230/116/496 229/258/496 119/70/496
f 455/410/497 357/13/497 448/349/497
f 235/412/498 228/351/498 128/16/498
f 265/15/499 448/349/499 357/13/499
f 35/17/500 128/16/500 228/351/500
f 337/78/501 297/396/501 338/81/501
f 108/80/502 109/82/502 67/397/502
f 300/47/503 338/81/503 297/396/503
f 70/50/504 67/397/504 109/82/504
f 152/79/505 338/81/505 11/439/505
f 152/79/506 11/439/506 109/82/506
f 339/311/507 11/439/507 338/81/507
f 110/312/508 109/82/508 11/439/508
f 279/84/509 440/279/509 295/388/509
f 49/88/510 65/389/510 220/280/510
f 456/390/511 295/388/511 440/279/511
f 236/391/512 220/280/512 65/389/512
f 408/105/513 416/109/513 293/342/513
f 184/107/514 63/346/514 192/110/514
f 309/347/515 293/342/515 416/109/515
f 79/348/516 192/110/516 63/346/516
f 359/169/517 372/271/517 430/287/517
f 130/170/518 210/288/518 143/272/518
f 356/267/519 430/287/519 372/271/519
f 127/270/520 143/272/520 210/288/520
f 346/350/521 373/353/521 341/251/521
f 117/352/522 112/254/522 144/354/522
f 266/378/523 341/251/523 373/353/523
f 36/379/524 144/354/524 112/254/524
f 389/147/525 391/437/525 467/11/525
f 162/148/526 247/4/526 164/438/526
f 250/12/527 467/11/527 391/437/527
f 8/6/528 164/438/528 247/4/528
f 353/355/529 347/253/529 281/65/529
f 124/356/530 51/68/530 118/255/530
f 348/66/531 281/65/531 347/253/531
f 119/70/532 118/255/532 51/68/532
f 296/405/533 443/440/533 283/299/533
f 66/406/534 53/301/534 223/441/534
f 444/297/535 283/299/535 443/440/535
f 224/300/536 223/441/536 53/301/536
f 20/358/537 95/442/537 355/361/537
f 20/358/538 126/362/538 95/442/538
f 371/443/539 355/361/539 95/442/539
f 142/444/540 95/442/540 126/362/540
f 296/405/541 286/247/541 443/440/541
f 66/406/542 223/441/542 56/249/542
f 442/259/543 443/440/543 286/247/543
f 222/260/544 56/249/544 223/441/544
f 420/241/545 198/423/545 249/239/545
f 197/243/546 4/242/546 198/423/546
f 196/432/547 249/239/547 198/423/547
f 196/432/548 198/423/548 4/242/548
f 360/315/549 264/10/549 256/445/549
f 131/318/550 26/446/550 34/5/550
f 250/12/551 256/445/551 264/10/551
f 8/6/552 34/5/552 26/446/552
f 276/180/553 275/359/553 441/307/553
f 46/182/554 221/308/554 45/360/554
f 458/447/555 441/307/555 275/359/555
f 238/448/556 45/360/556 221/308/556
f 301/335/557 384/339/557 302/172/557
f 71/337/558 72/176/558 157/340/558
f 369/19/559 302/172/559 384/339/559
f 140/20/560 157/340/560 72/176/560
f 418/221/561 352/398/561 466/222/561
f 194/224/562 246/226/562 123/399/562
f 413/449/563 466/222/563 352/398/563
f 189/450/564 123/399/564 246/226/564
f 467/11/565 264/10/565 468/237/565
f 247/4/566 248/238/566 34/5/566
f 360/315/567 468/237/567 264/10/567
f 131/318/568 34/5/568 248/238/568
f 390/14/569 252/177/569 369/19/569
f 163/18/570 140/20/570 22/178/570
f 302/172/571 369/19/571 252/177/571
f 72/176/572 22/178/572 140/20/572
f 375/191/573 387/231/573 381/365/573
f 146/192/574 154/367/574 160/233/574
f 386/235/575 381/365/575 387/231/575
f 159/236/576 160/233/576 154/367/576
f 380/290/577 395/293/577 379/394/577
f 151/292/578 150/395/578 170/294/578
f 396/309/579 379/394/579 395/293/579
f 171/310/580 170/294/580 150/395/580
f 352/398/581 420/241/581 413/449/581
f 123/399/582 189/450/582 197/243/582
f 400/245/583 413/449/583 420/241/583
f 175/246/584 197/243/584 189/450/584
f 427/214/585 323/111/585 437/363/585
f 207/215/586 217/364/586 93/113/586
f 411/112/587 437/363/587 323/111/587
f 187/114/588 93/113/588 217/364/588
f 388/142/589 374/186/589 389/147/589
f 161/146/590 162/148/590 145/190/590
f 391/437/591 389/147/591 374/186/591
f 164/438/592 145/190/592 162/148/592
f 394/369/593 327/262/593 165/451/593
f 168/370/594 165/451/594 98/263/594
f 3/452/595 165/451/595 327/262/595
f 3/452/596 98/263/596 165/451/596
f 355/361/597 371/443/597 462/331/597
f 126/362/598 242/332/598 142/444/598
f 463/327/599 462/331/599 371/443/599
f 243/329/600 142/444/600 242/332/600
f 1/22/601 268/21/601 165/451/601
f 1/22/602 165/451/602 38/24/602
f 394/369/603 165/451/603 268/21/603
f 168/370/604 38/24/604 165/451/604
f 12/26/605 13/453/605 303/23/605
f 12/26/606 73/25/606 13/453/606
f 269/384/607 303/23/607 13/453/607
f 39/385/608 13/453/608 73/25/608
f 387/231/609 375/191/609 388/142/609
f 160/233/610 161/146/610 146/192/610
f 374/186/611 388/142/611 375/191/611
f 145/190/612 146/192/612 161/146/612
f 13/453/613 14/454/613 269/384/613
f 13/453/614 39/385/614 14/454/614
f 313/433/615 269/384/615 14/454/615
f 83/434/616 14/454/616 39/385/616
f 294/323/617 301/335/617 299/171/617
f 64/324/618 69/174/618 71/337/618
f 302/172/619 299/171/619 301/335/619
f 72/176/620 71/337/620 69/174/620
f 341/251/621 266/378/621 262/252/621
f 112/254/622 32/256/622 36/379/622
f 447/319/623 262/252/623 266/378/623
f 227/320/624 36/379/624 32/256/624
f 381/365/625 386/235/625 382/61/625
f 154/367/626 155/63/626 159/236/626
f 385/62/627 382/61/627 386/235/627
f 158/64/628 159/236/628 155/63/628
f 281/65/629 331/67/629 426/197/629
f 51/68/630 206/200/630 102/69/630
f 267/213/631 426/197/631 331/67/631
f 37/216/632 102/69/632 206/200/632
f 424/164/633 392/163/633 427/214/633
f 204/168/634 207/215/634 166/166/634
f 323/111/635 427/214/635 392/163/635
f 93/113/636 166/166/636 207/215/636
f 430/287/637 356/267/637 421/285/637
f 210/288/638 199/286/638 127/270/638
f 438/295/639 421/285/639 356/267/639
f 218/296/640 127/270/640 199/286/640
f 392/163/641 328/165/641 394/369/641
f 166/166/642 168/370/642 99/167/642
f 327/262/643 394/369/643 328/165/643
f 98/263/644 99/167/644 168/370/644
f 458/447/645 439/275/645 441/307/645
f 238/448/646 221/308/646 219/277/646
f 345/83/647 441/307/647 439/275/647
f 116/86/648 219/277/648 221/308/648
f 383/7/649 363/9/649 342/283/649
f 156/2/650 113/284/650 134/3/650
f 464/455/651 342/283/651 363/9/651
f 244/456/652 134/3/652 113/284/652
f 458/447/653 462/331/653 460/457/653
f 238/448/654 240/458/654 242/332/654
f 459/326/655 460/457/655 462/331/655
f 239/330/656 242/332/656 240/458/656
f 435/119/657 431/121/657 365/159/657
f 215/122/658 136/161/658 211/123/658
f 395/293/659 365/159/659 431/121/659
f 170/294/660 211/123/660 136/161/660
f 415/150/661 464/455/661 399/8/661
f 191/152/662 174/1/662 244/456/662
f 363/9/663 399/8/663 464/455/663
f 134/3/664 244/456/664 174/1/664
f 263/91/665 429/372/665 370/217/665
f 33/94/666 141/219/666 209/373/666
f 397/57/667 370/217/667 429/372/667
f 172/58/668 209/373/668 141/219/668
f 458/447/669 275/359/669 462/331/669
f 238/448/670 242/332/670 45/360/670
f 355/361/671 462/331/671 275/359/671
f 126/362/672 45/360/672 242/332/672
f 317/414/673 404/407/673 318/417/673
f 87/415/674 88/418/674 180/408/674
f 403/419/675 318/417/675 404/407/675
f 179/421/676 180/408/676 88/418/676
f 316/211/677 405/208/677 317/414/677
f 86/212/678 87/415/678 181/209/678
f 404/407/679 317/414/679 405/208/679
f 180/408/680 181/209/680 87/415/680
f 315/128/681 406/206/681 316/211/681
f 85/131/682 86/212/682 182/207/682
f 405/208/683 316/211/683 406/206/683
f 181/209/684 182/207/684 86/212/684
f 314/127/685 407/153/685 315/128/685
f 84/130/686 85/131/686 183/154/686
f 406/206/687 315/128/687 407/153/687
f 182/207/688 183/154/688 85/131/688
f 419/93/689 407/153/689 422/203/689
f 195/95/690 202/205/690 183/154/690
f 314/127/691 422/203/691 407/153/691
f 84/130/692 183/154/692 202/205/692
f 367/382/693 402/459/693 324/409/693
f 138/383/694 94/411/694 178/460/694
f 362/461/695 324/409/695 402/459/695
f 133/462/696 178/460/696 94/411/696
f 409/99/697 408/105/697 307/135/697
f 185/100/698 77/137/698 184/107/698
f 293/342/699 307/135/699 408/105/699
f 63/346/700 184/107/700 77/137/700
f 409/99/701 307/135/701 410/101/701
f 185/100/702 186/102/702 77/137/702
f 292/139/703 410/101/703 307/135/703
f 62/140/704 77/137/704 186/102/704
f 411/112/705 410/101/705 288/374/705
f 187/114/706 58/375/706 186/102/706
f 292/139/707 288/374/707 410/101/707
f 62/140/708 186/102/708 58/375/708
f 437/363/709 411/112/709 433/120/709
f 217/364/710 213/124/710 187/114/710
f 288/374/711 433/120/711 411/112/711
f 58/375/712 187/114/712 213/124/712
f 435/119/713 417/158/713 428/201/713
f 215/122/714 208/202/714 193/162/714
f 412/198/715 428/201/715 417/158/715
f 188/199/716 193/162/716 208/202/716
f 265/15/717 369/19/717 373/353/717
f 35/17/718 144/354/718 140/20/718
f 384/339/719 373/353/719 369/19/719
f 157/340/720 140/20/720 144/354/720
f 458/447/721 460/457/721 439/275/721
f 238/448/722 219/277/722 240/458/722
f 310/273/723 439/275/723 460/457/723
f 80/276/724 240/458/724 219/277/724
f 353/355/725 377/401/725 367/382/725
f 124/356/726 138/383/726 148/402/726
f 402/459/727 367/382/727 377/401/727
f 178/460/728 148/402/728 138/383/728
f 5/179/729 2/357/729 276/180/729
f 5/179/730 46/182/730 2/357/730
f 275/359/731 276/180/731 2/357/731
f 45/360/732 2/357/732 46/182/732
f 429/372/733 263/91/733 422/203/733
f 209/373/734 202/205/734 33/94/734
f 419/93/735 422/203/735 263/91/735
f 195/95/736 33/94/736 202/205/736
f 328/165/737 359/169/737 295/388/737
f 99/167/738 65/389/738 130/170/738
f 332/392/739 295/388/739 359/169/739
f 103/393/740 130/170/740 65/389/740
f 368/157/741 436/427/741 417/158/741
f 139/160/742 193/162/742 216/429/742
f 434/463/743 417/158/743 436/427/743
f 214/464/744 216/429/744 193/162/744
f 456/390/745 440/279/745 290/465/745
f 236/391/746 60/466/746 220/280/746
f 393/274/747 290/465/747 440/279/747
f 167/278/748 220/280/748 60/466/748
f 329/265/749 463/327/749 327/262/749
f 100/266/750 98/263/750 243/329/750
f 371/443/751 327/262/751 463/327/751
f 142/444/752 243/329/752 98/263/752
f 327/262/753 371/443/753 3/452/753
f 98/263/754 3/452/754 142/444/754
f 95/442/755 3/452/755 371/443/755
f 95/442/756 142/444/756 3/452/756
f 461/261/757 456/390/757 306/467/757
f 241/264/758 76/468/758 236/391/758
f 290/465/759 306/467/759 456/390/759
f 60/466/760 236/391/760 76/468/760
f 449/257/761 340/435/761 450/115/761
f 229/258/762 230/116/762 111/436/762
f 255/185/763 450/115/763 340/435/763
f 25/188/764 111/436/764 230/116/764
f 262/252/765 447/319/765 256/445/765
f 32/256/766 26/446/766 227/320/766
f 360/315/767 256/445/767 447/319/767
f 131/318/768 227/320/768 26/446/768
f 450/115/769 255/185/769 451/117/769
f 230/116/770 231/118/770 25/188/770
f 254/187/771 451/117/771 255/185/771
f 24/189/772 25/188/772 231/118/772
f 451/117/773 254/187/773 452/28/773
f 231/118/774 232/32/774 24/189/774
f 253/366/775 452/28/775 254/187/775
f 23/368/776 24/189/776 232/32/776
f 452/28/777 253/366/777 453/33/777
f 232/32/778 233/34/778 23/368/778
f 257/281/779 453/33/779 253/366/779
f 27/282/780 23/368/780 233/34/780
f 257/281/781 342/283/781 453/33/781
f 27/282/782 233/34/782 113/284/782
f 454/45/783 453/33/783 342/283/783
f 234/46/784 113/284/784 233/34/784
f 414/223/785 465/227/785 415/150/785
f 190/225/786 191/152/786 245/228/786
f 464/455/787 415/150/787 465/227/787
f 244/456/788 245/228/788 191/152/788
f 442/259/789 414/223/789 287/149/789
f 222/260/790 57/151/790 190/225/790
f 415/150/791 287/149/791 414/223/791
f 191/152/792 190/225/792 57/151/792
f 442/259/793 287/149/793 443/440/793
f 222/260/794 223/441/794 57/151/794
f 259/230/795 443/440/795 287/149/795
f 29/234/796 57/151/796 223/441/796
f 443/440/797 259/230/797 444/297/797
f 223/441/798 224/300/798 29/234/798
f 258/229/799 444/297/799 259/230/799
f 28/232/800 29/234/800 224/300/800
f 445/298/801 444/297/801 260/141/801
f 225/302/802 30/144/802 224/300/802
f 258/229/803 260/141/803 444/297/803
f 28/232/804 224/300/804 30/144/804
f 260/141/805 261/143/805 445/298/805
f 30/144/806 225/302/806 31/145/806
f 446/380/807 445/298/807 261/143/807
f 226/381/808 31/145/808 225/302/808
f 261/143/809 468/237/809 446/380/809
f 31/145/810 226/381/810 248/238/810
f 343/316/811 446/380/811 468/237/811
f 114/317/812 248/238/812 226/381/812
f 251/325/813 310/273/813 459/326/813
f 21/328/814 239/330/814 80/276/814
f 460/457/815 459/326/815 310/273/815
f 240/458/816 80/276/816 239/330/816
f 291/376/817 306/467/817 393/274/817
f 61/377/818 167/278/818 76/468/818
f 290/465/819 393/274/819 306/467/819
f 60/466/820 76/468/820 167/278/820
f 461/261/821 306/467/821 329/265/821
f 241/264/822 100/266/822 76/468/822
f 291/376/823 329/265/823 306/467/823
f 61/377/824 76/468/824 100/266/824
f 377/401/825 434/463/825 402/459/825
f 148/402/826 178/460/826 214/464/826
f 436/427/827 402/459/827 434/463/827
f 216/429/828 214/464/828 178/460/828
f 251/325/829 291/376/829 310/273/829
f 21/328/830 80/276/830 61/377/830
f 393/274/831 310/273/831 291/376/831
f 167/278/832 61/377/832 80/276/832
f 412/198/833 417/158/833 377/401/833
f 188/199/834 148/402/834 193/162/834
f 434/463/835 377/401/835 417/158/835
f 214/464/836 193/162/836 148/402/836
f 342/283/837 464/455/837 454/45/837
f 113/284/838 234/46/838 244/456/838
f 465/227/839 454/45/839 464/455/839
f 245/228/840 244/456/840 234/46/840
f 454/45/841 465/227/841 358/39/841
f 234/46/842 129/41/842 245/228/842
f 466/222/843 358/39/843 465/227/843
f 246/226/844 245/228/844 129/41/844
f 413/449/845 344/40/845 466/222/845
f 189/450/846 246/226/846 115/42/846
f 358/39/847 466/222/847 344/40/847
f 129/41/848 115/42/848 246/226/848
f 438/295/849 344/40/849 400/245/849
f 218/296/850 175/246/850 115/42/850
f 413/449/851 400/245/851 344/40/851
f 189/450/852 115/42/852 175/246/852
f 364/305/853 441/307/853 361/85/853
f 135/306/854 132/87/854 221/308/854
f 345/83/855 361/85/855 441/307/855
f 116/86/856 221/308/856 132/87/856
f 457/240/857 421/285/857 400/245/857
f 237/244/858 175/246/858 199/286/858
f 438/295/859 400/245/859 421/285/859
f 218/296/860 199/286/860 175/246/860
f 457/240/861 364/305/861 421/285/861
f 237/244/862 199/286/862 135/306/862
f 361/85/863 421/285/863 364/305/863
f 132/87/864 135/306/864 199/286/864
f 362/461/865 402/459/865 289/426/865
f 133/462/866 59/428/866 178/460/866
f 436/427/867 289/426/867 402/459/867
f 216/429/868 178/460/868 59/428/868
f 354/334/869 266/378/869 384/339/869
f 125/338/870 157/340/870 36/379/870
f 373/353/871 384/339/871 266/378/871
f 144/354/872 36/379/872 157/340/872
f 256/445/873 250/12/873 340/435/873
f 26/446/874 111/436/874 8/6/874
f 391/437/875 340/435/875 250/12/875
f 164/438/876 8/6/876 111/436/876
f 262/252/877 256/445/877 449/257/877
f 32/256/878 229/258/878 26/446/878
f 340/435/879 449/257/879 256/445/879
f 111/436/880 26/446/880 229/258/880
